{"glyphs":{"0":{"ha":746,"x_min":76,"x_max":696,"o":"m 696 457 q 389 -17 696 -17 q 153 102 231 -17 q 76 472 76 221 q 388 974 76 974 q 638 817 563 974 q 696 457 696 694 m 588 471 q 539 788 588 689 q 388 881 493 881 q 231 775 276 881 q 188 471 188 678 q 239 156 188 246 q 388 75 285 75 q 544 169 500 75 q 588 471 588 264 z "},"1":{"ha":457,"x_min":40,"x_max":344,"o":"m 344 0 q 286 6 315 6 q 232 0 260 6 q 236 456 236 218 l 236 700 q 238 731 236 711 q 240 758 240 751 q 233 774 240 774 q 214 760 228 774 q 188 740 196 744 q 40 685 97 699 q 46 736 46 706 q 40 785 46 765 q 179 842 132 810 q 278 964 240 883 q 310 960 296 960 q 344 964 324 960 q 342 456 342 706 q 344 0 342 190 z "},"2":{"ha":746,"x_min":64,"x_max":656,"o":"m 656 0 q 381 6 543 6 q 74 0 225 6 l 74 13 q 64 131 74 106 q 326 343 161 204 q 482 510 444 457 q 547 693 547 600 q 360 882 547 882 q 176 686 176 882 l 176 651 q 125 656 156 656 q 68 651 94 656 l 68 669 q 157 897 68 814 q 364 975 239 975 q 577 898 499 975 q 656 692 656 821 q 565 454 656 568 q 214 140 471 335 q 177 117 196 129 q 158 97 158 106 q 171 90 158 90 q 197 93 179 90 q 224 96 215 96 q 656 106 417 97 q 651 51 651 81 q 656 0 651 22 z "},"3":{"ha":746,"x_min":61,"x_max":676,"o":"m 676 260 q 593 64 676 140 q 357 -15 506 -15 q 140 62 219 -15 q 61 274 61 139 q 115 268 88 268 q 171 274 142 268 q 358 76 176 76 q 507 124 454 76 q 560 260 560 172 q 363 451 560 451 q 310 449 343 451 q 258 447 278 447 l 242 447 q 246 493 246 471 q 242 540 246 515 l 254 540 q 312 538 274 540 q 369 535 350 535 q 544 714 544 535 q 361 882 544 882 q 183 707 197 882 q 131 713 157 713 q 76 707 104 713 q 163 901 81 826 q 365 975 244 975 q 579 899 500 975 q 653 715 653 828 q 532 519 653 581 q 497 511 531 518 q 475 496 475 506 q 500 481 475 485 q 535 475 535 475 q 676 260 676 411 z "},"4":{"ha":746,"x_min":49,"x_max":696,"o":"m 696 213 q 586 215 643 215 q 557 209 563 215 q 551 179 551 203 q 556 0 551 113 q 504 4 535 4 q 446 0 474 4 q 449 178 449 118 q 443 211 449 206 q 410 217 438 217 q 49 213 178 217 q 51 281 51 233 q 51 300 51 286 q 50 321 50 314 q 401 963 174 539 q 464 960 439 960 q 553 964 494 960 q 550 346 550 789 q 555 315 550 319 q 582 310 560 310 q 638 311 596 310 q 696 313 679 313 q 690 263 690 286 q 696 213 690 236 m 451 492 q 450 619 451 538 q 449 739 449 701 q 450 819 449 785 q 451 846 451 854 q 446 872 451 872 q 424 835 442 872 q 388 756 413 807 q 168 343 315 618 q 158 329 165 339 q 150 317 150 319 q 157 310 150 310 q 172 311 161 310 q 186 313 182 313 q 206 313 193 313 q 226 311 219 311 l 414 310 q 444 315 439 310 q 450 344 450 321 q 451 492 451 492 z "},"5":{"ha":731,"x_min":69,"x_max":664,"o":"m 664 335 q 590 86 664 178 q 351 -14 508 -14 q 142 62 214 -14 q 69 275 71 138 q 126 271 93 271 q 178 275 158 271 q 353 79 178 79 q 514 149 465 79 q 557 331 557 208 q 361 558 557 558 q 257 543 294 558 q 176 471 211 524 q 93 486 143 486 q 114 911 114 633 l 114 964 q 294 960 169 960 q 614 964 353 960 q 607 910 607 936 q 610 863 607 879 q 242 867 343 867 q 211 861 217 867 q 204 828 206 856 q 193 613 203 740 q 185 588 185 576 q 194 578 185 578 q 210 588 200 578 q 382 651 271 651 q 589 568 514 651 q 664 335 664 485 z "},"6":{"ha":746,"x_min":76,"x_max":683,"o":"m 683 304 q 605 69 683 154 q 389 -15 526 -15 q 76 442 76 -15 q 401 975 76 975 q 594 910 526 975 q 664 724 663 846 q 608 728 638 728 q 551 724 578 728 q 515 844 549 806 q 401 882 482 882 q 255 831 303 882 q 192 649 207 779 q 182 564 188 617 q 175 500 181 544 q 169 467 169 472 q 175 460 169 460 q 186 475 176 460 q 219 528 214 521 q 261 574 239 557 q 414 617 318 617 q 611 531 539 617 q 683 304 683 444 m 575 296 q 397 522 575 522 q 281 489 333 522 q 201 400 228 456 q 189 357 189 374 q 192 306 189 335 q 390 79 214 79 q 575 296 575 79 z "},"7":{"ha":694,"x_min":53,"x_max":656,"o":"m 656 918 q 654 871 656 896 q 343 0 343 474 q 288 6 310 6 q 229 0 257 6 q 521 831 229 453 q 540 849 524 835 q 553 865 553 861 q 540 871 553 871 q 516 869 533 871 q 492 867 499 867 l 367 867 q 53 858 171 867 q 57 922 57 875 q 56 964 57 946 q 463 961 300 961 q 654 964 601 961 q 656 918 656 940 z "},"8":{"ha":746,"x_min":68,"x_max":683,"o":"m 683 251 q 603 54 683 124 q 376 -15 522 -15 q 149 54 231 -15 q 68 251 68 124 q 207 476 68 407 q 249 488 214 479 q 275 501 275 493 q 250 517 275 508 q 210 532 215 529 q 100 725 100 597 q 174 908 100 840 q 376 975 249 975 q 577 908 503 975 q 651 725 651 840 q 542 532 651 597 q 501 517 536 529 q 476 501 476 508 q 503 488 476 494 q 544 476 538 479 q 683 251 683 407 m 543 724 q 376 882 543 882 q 208 724 208 882 q 248 592 208 633 q 375 551 288 551 q 543 724 543 551 m 581 254 q 526 406 581 354 q 376 458 472 458 q 226 406 281 458 q 171 254 171 354 q 375 79 171 79 q 581 254 581 79 z "},"9":{"ha":746,"x_min":63,"x_max":669,"o":"m 669 518 q 344 -15 669 -15 q 151 49 219 -15 q 81 236 82 114 q 140 231 110 231 q 194 236 169 231 q 229 118 197 153 q 344 78 263 78 q 490 129 443 78 q 553 311 538 181 q 564 396 557 343 q 571 460 565 415 q 576 493 576 488 q 571 500 576 500 q 560 485 569 500 q 526 432 532 439 q 485 386 507 403 q 332 343 428 343 q 135 429 207 343 q 63 656 63 515 q 140 890 63 806 q 356 975 218 975 q 669 518 669 975 m 556 603 q 553 654 556 625 q 354 881 531 881 q 171 664 171 881 q 349 438 171 438 q 465 471 413 438 q 544 560 518 504 q 556 603 556 583 z "}," ":{"ha":358,"x_min":0,"x_max":0,"o":""},"!":{"ha":460,"x_min":164,"x_max":296,"o":"m 296 965 q 283 604 296 888 q 264 242 271 331 q 233 244 249 244 q 194 242 219 244 q 176 603 188 329 q 164 965 164 885 q 233 960 197 960 q 296 965 269 960 m 290 0 q 233 7 261 7 q 169 0 208 7 q 172 64 172 28 q 169 128 172 101 q 226 125 199 125 q 290 128 251 125 q 288 58 288 99 q 290 0 288 22 z "},"\"":{"ha":506,"x_min":83,"x_max":422,"o":"m 422 964 q 401 581 404 726 q 364 585 383 585 q 321 581 347 585 q 301 964 315 810 q 367 961 328 961 q 422 964 404 961 m 204 964 q 185 581 186 772 q 140 583 167 583 q 103 581 115 583 q 83 964 100 785 q 140 961 104 961 q 204 964 179 961 z "},"#":{"ha":821,"x_min":21,"x_max":778,"o":"m 778 688 q 764 589 769 657 q 639 594 660 594 q 610 569 614 594 q 579 383 579 410 q 589 378 579 378 q 728 385 608 378 q 715 288 715 349 q 590 293 644 293 q 568 289 572 293 q 560 263 564 285 q 521 0 546 164 q 472 6 497 6 q 417 0 453 6 q 469 292 469 300 q 460 296 469 296 l 300 296 q 275 292 281 296 q 267 265 269 288 l 229 0 q 181 6 193 6 q 125 0 154 6 q 176 290 176 272 q 169 296 176 296 q 21 289 176 296 q 36 385 33 332 q 164 379 121 379 q 188 383 182 379 q 196 406 193 388 q 225 588 225 556 q 217 596 225 596 q 71 589 208 596 q 88 686 81 624 q 143 683 92 686 q 213 682 188 682 q 246 707 242 682 q 281 964 265 815 q 338 960 311 960 q 386 964 363 960 q 336 686 336 708 q 344 681 336 681 l 508 681 q 531 685 526 681 q 539 707 536 689 q 576 964 550 778 q 631 961 608 961 q 676 964 654 961 q 626 685 626 694 q 632 681 626 681 q 778 688 642 681 m 519 590 q 511 596 519 596 l 350 596 q 314 568 319 596 q 286 385 286 415 q 294 378 286 378 l 457 378 q 482 383 476 378 q 492 410 488 389 q 519 590 519 558 z "},"$":{"ha":757,"x_min":71,"x_max":679,"o":"m 679 286 q 447 17 679 57 q 421 13 421 13 q 413 -8 413 8 q 414 -97 413 -35 q 372 -92 393 -92 q 331 -97 351 -92 q 332 -51 331 -87 q 333 -6 333 -22 q 311 18 333 15 q 90 182 140 39 q 71 286 72 232 q 121 281 90 281 q 171 285 149 281 q 172 272 171 282 q 211 164 182 201 q 301 108 240 126 q 321 104 315 104 q 335 133 335 104 l 336 438 q 331 468 336 463 q 303 482 326 474 q 92 729 92 557 q 149 882 92 821 q 304 960 206 943 q 326 964 325 963 q 333 983 333 968 q 331 1057 333 976 q 369 1053 344 1053 q 413 1057 394 1053 q 411 979 411 1003 q 433 961 411 964 q 654 733 643 940 q 607 739 631 739 q 556 732 579 739 q 529 821 546 796 q 436 875 504 858 q 418 879 418 879 q 411 858 411 879 q 410 726 411 824 q 408 594 408 643 q 415 561 408 567 q 444 549 418 557 q 618 453 563 510 q 679 286 679 389 m 339 583 q 338 603 339 590 q 336 622 336 615 q 338 654 336 633 q 338 688 338 675 q 335 857 338 718 q 322 879 335 879 q 308 876 319 879 q 189 740 189 846 q 299 596 189 647 q 335 578 338 578 q 339 583 339 578 m 583 264 q 547 376 583 336 q 439 440 517 410 q 424 449 436 442 q 408 457 413 457 q 404 449 404 457 q 406 427 404 443 q 408 404 408 411 l 410 133 q 422 101 410 101 q 440 104 428 101 q 583 264 583 136 z "},"%":{"ha":1053,"x_min":63,"x_max":1004,"o":"m 1004 243 q 950 57 1004 128 q 803 -14 896 -14 q 657 56 711 -14 q 603 239 603 125 q 656 429 603 358 q 803 500 710 500 q 951 431 897 500 q 1004 243 1004 361 m 879 964 q 301 0 796 829 q 256 7 282 7 q 199 0 229 7 q 776 964 356 247 q 829 958 801 958 q 879 964 856 958 m 464 718 q 410 533 464 603 q 263 463 356 463 q 117 533 171 463 q 63 715 63 603 q 116 906 63 835 q 263 976 169 976 q 410 906 357 976 q 464 718 464 836 m 913 238 q 888 385 913 342 q 803 428 864 428 q 693 243 693 428 q 804 60 693 60 q 913 238 913 60 m 372 713 q 347 859 372 814 q 263 904 321 904 q 153 719 153 904 q 264 536 153 536 q 372 713 372 536 z "},"&":{"ha":1010,"x_min":76,"x_max":889,"o":"m 889 -4 q 814 -15 851 -15 q 649 64 717 -15 q 625 89 626 89 q 594 64 622 89 q 496 1 540 17 q 378 -15 451 -15 q 76 264 76 -15 q 271 550 76 467 q 301 567 301 563 q 292 583 301 571 q 282 594 282 594 q 217 778 217 703 q 278 924 217 867 q 446 982 339 982 q 675 779 675 982 q 472 549 675 629 q 439 529 439 536 q 464 493 439 531 q 603 304 514 417 q 622 271 611 294 q 636 254 632 254 q 663 293 642 254 q 740 538 713 385 q 797 533 757 533 q 851 539 825 533 q 725 215 819 361 q 707 182 707 188 q 725 151 707 174 q 838 88 778 88 q 886 99 861 88 q 882 58 882 83 q 889 -4 882 22 m 572 775 q 444 896 572 896 q 321 788 321 896 q 375 636 321 736 q 406 607 390 607 q 435 615 417 607 q 538 681 508 649 q 572 775 572 717 m 576 169 q 564 188 576 175 q 549 204 557 196 q 449 335 451 332 q 369 453 404 394 q 339 490 347 490 q 310 479 331 490 q 214 399 242 443 q 186 283 186 354 q 374 79 186 79 q 461 88 433 79 q 546 140 501 100 q 576 169 576 168 z "},"'":{"ha":288,"x_min":83,"x_max":204,"o":"m 204 964 q 185 581 189 778 q 147 583 172 583 q 103 581 121 583 q 83 964 97 783 q 146 960 110 960 q 204 964 179 960 z "},"(":{"ha":492,"x_min":128,"x_max":421,"o":"m 421 -211 q 382 -210 410 -210 q 343 -211 354 -210 q 128 400 128 74 q 340 996 128 733 q 382 994 351 994 l 385 994 q 421 996 410 994 q 242 404 242 740 q 421 -211 242 76 z "},")":{"ha":492,"x_min":68,"x_max":364,"o":"m 364 401 q 151 -211 364 68 q 108 -208 125 -208 q 72 -211 90 -208 q 251 404 251 74 q 68 996 251 735 q 108 993 82 993 q 151 996 135 993 q 364 401 364 731 z "},"*":{"ha":592,"x_min":33,"x_max":558,"o":"m 558 757 q 400 714 478 738 q 372 710 386 711 q 351 696 351 704 q 363 680 351 690 q 378 665 375 669 q 488 522 424 603 q 417 474 447 507 q 324 618 361 563 q 311 642 318 629 q 297 654 304 654 q 286 643 292 654 q 276 624 278 625 q 175 472 222 546 q 101 528 150 501 q 217 669 156 589 q 229 682 218 672 q 240 697 240 692 q 227 708 240 706 q 203 711 214 710 q 33 756 108 739 q 63 840 57 797 q 221 783 119 815 q 239 775 225 782 q 258 768 253 768 q 269 781 269 768 q 267 797 269 786 q 264 813 264 807 q 251 982 261 888 q 300 978 278 978 q 343 982 324 978 q 336 813 340 936 q 333 795 336 807 q 329 779 329 783 q 342 768 329 768 q 360 774 347 768 q 378 782 374 781 q 531 839 450 804 q 558 757 533 800 z "},"+":{"ha":792,"x_min":89,"x_max":703,"o":"m 703 303 l 479 304 q 464 306 472 304 q 449 306 456 306 q 436 294 436 306 q 438 279 436 289 q 439 265 439 269 l 443 17 q 400 21 424 21 q 349 17 375 21 l 353 264 q 354 278 353 267 q 356 294 356 289 q 344 306 356 306 q 331 306 340 306 q 315 304 319 304 l 89 301 q 93 353 93 322 q 89 400 93 376 l 317 394 q 331 393 319 394 q 346 393 340 393 q 356 407 356 393 q 354 422 356 413 q 353 435 353 432 l 349 682 q 399 678 376 678 q 443 682 424 678 l 439 436 q 438 424 439 435 q 436 407 436 413 q 447 393 436 393 q 463 393 453 393 q 475 394 474 394 l 703 400 q 699 353 699 383 q 703 303 699 329 z "},",":{"ha":335,"x_min":89,"x_max":235,"o":"m 235 135 q 167 -210 217 -39 q 140 -208 154 -208 q 89 -211 128 -208 q 121 135 121 -49 q 181 132 153 132 q 235 135 207 132 z "},"-":{"ha":379,"x_min":64,"x_max":324,"o":"m 324 324 q 192 328 261 328 q 64 324 110 328 q 69 371 69 344 q 64 417 69 397 q 190 411 129 411 q 324 417 274 411 q 318 371 318 396 q 324 324 318 350 z "},"‐":{"ha":379,"x_min":64,"x_max":324,"o":"m 324 324 q 192 328 261 328 q 64 324 110 328 q 69 371 69 344 q 64 417 69 397 q 190 411 129 411 q 324 417 274 411 q 318 371 318 396 q 324 324 318 350 z "},".":{"ha":335,"x_min":110,"x_max":231,"o":"m 231 0 q 174 7 201 7 q 110 0 149 7 q 113 68 113 28 q 110 135 113 108 q 165 132 139 132 q 231 135 192 132 q 228 63 228 106 q 231 0 228 22 z "},"/":{"ha":596,"x_min":14,"x_max":535,"o":"m 535 985 q 108 -168 322 424 q 58 -162 82 -162 q 14 -168 36 -162 q 438 983 211 339 q 482 979 457 979 q 535 985 511 979 z "},":":{"ha":335,"x_min":110,"x_max":231,"o":"m 231 514 q 174 521 201 521 q 110 514 149 521 q 113 582 113 542 q 110 649 113 622 q 165 646 139 646 q 231 649 192 646 q 228 576 228 619 q 231 514 228 536 m 231 0 q 174 6 206 6 q 110 0 140 6 q 113 68 113 28 q 110 135 113 108 q 165 132 139 132 q 231 135 192 132 q 228 63 228 106 q 231 0 228 22 z "},";":{"ha":335,"x_min":89,"x_max":235,"o":"m 231 514 q 174 521 201 521 q 110 514 149 521 q 113 582 113 542 q 110 649 113 622 q 165 646 139 646 q 231 649 192 646 q 228 576 228 619 q 231 514 228 536 m 235 128 q 167 -217 217 -46 q 140 -215 154 -215 q 89 -218 128 -215 q 121 128 121 -56 q 181 125 153 125 q 235 128 207 125 z "},"<":{"ha":792,"x_min":85,"x_max":707,"o":"m 707 4 q 85 313 435 150 q 89 356 89 344 q 85 399 89 364 q 707 704 361 525 q 701 649 701 672 q 707 603 701 626 q 275 397 544 531 q 219 379 274 397 q 188 354 188 368 q 219 331 188 342 q 275 310 274 310 q 707 106 525 185 q 701 61 701 86 q 707 4 701 38 z "},"=":{"ha":792,"x_min":89,"x_max":703,"o":"m 703 443 q 396 447 521 447 q 89 443 215 447 q 93 488 93 463 q 89 536 93 515 q 396 532 269 532 q 703 536 574 532 q 700 490 700 521 q 703 443 700 461 m 703 179 q 396 183 567 183 q 89 179 185 183 q 93 225 93 197 q 89 272 93 250 q 396 268 219 268 q 703 272 524 268 q 699 221 699 246 q 703 179 699 197 z "},">":{"ha":792,"x_min":85,"x_max":707,"o":"m 707 310 q 85 4 431 183 q 90 60 90 36 q 85 106 90 82 q 517 311 247 178 q 572 329 518 311 q 604 354 604 340 q 572 378 604 367 q 517 399 518 399 q 85 603 267 524 q 90 647 90 622 q 85 704 90 671 q 707 396 357 558 q 703 353 703 364 q 707 310 703 344 z "},"?":{"ha":685,"x_min":64,"x_max":624,"o":"m 624 706 q 581 549 624 610 q 442 435 539 489 q 367 374 386 403 q 346 274 346 339 l 346 250 q 294 256 321 256 q 242 250 274 256 l 242 272 q 311 463 242 401 q 442 543 376 503 q 511 697 511 593 q 472 837 511 792 q 339 882 432 882 q 204 840 240 882 q 168 700 168 797 q 118 704 149 704 q 64 699 94 704 l 64 717 q 138 909 64 843 q 342 975 211 975 q 549 906 475 975 q 624 706 624 836 m 356 0 q 296 6 325 6 q 235 0 265 6 q 239 63 239 22 q 235 128 239 103 q 299 125 261 125 q 356 128 336 125 q 351 63 351 96 q 356 0 351 28 z "},"@":{"ha":1047,"x_min":93,"x_max":967,"o":"m 967 524 q 905 289 967 381 q 746 197 843 197 q 639 249 672 197 q 631 275 636 253 q 619 293 626 293 q 606 278 614 293 q 593 254 596 257 q 479 200 549 200 q 365 257 407 200 q 322 410 322 314 q 390 642 322 546 q 551 738 457 738 q 646 685 618 738 q 658 671 653 671 q 664 715 664 671 l 664 732 q 707 729 682 729 q 746 732 731 729 q 699 371 725 579 q 697 354 699 368 q 694 339 694 340 q 754 269 694 269 q 855 340 817 269 q 893 522 893 410 q 798 803 893 694 q 553 913 703 913 q 287 787 393 913 q 181 474 181 661 q 290 165 181 288 q 567 42 400 42 q 694 58 640 42 q 822 119 749 75 q 849 63 828 90 q 708 -10 767 8 q 557 -29 649 -29 q 224 110 354 -29 q 93 469 93 250 q 223 838 93 692 q 553 983 353 983 q 852 856 738 983 q 967 524 967 729 m 639 581 q 560 667 639 667 q 460 595 500 667 q 419 419 419 524 q 442 322 419 360 q 499 283 464 283 q 601 381 565 283 q 629 514 613 408 q 639 581 639 572 z "},"A":{"ha":824,"x_min":22,"x_max":801,"o":"m 801 0 q 736 4 760 4 q 676 0 717 4 q 613 204 656 63 q 602 228 607 224 q 575 232 597 232 q 378 235 469 235 q 256 233 326 235 q 217 229 224 233 q 203 203 210 225 q 142 0 181 132 q 85 4 107 4 q 22 0 58 4 q 336 964 156 397 q 407 960 364 960 q 481 964 444 960 q 626 518 506 874 q 801 0 714 260 m 578 335 q 572 347 578 338 q 564 363 565 357 q 431 781 517 510 q 413 853 424 808 q 406 867 408 867 q 397 853 400 867 q 381 782 390 813 q 251 365 339 650 q 244 348 250 360 q 238 333 238 336 q 250 326 238 326 q 331 328 276 326 q 411 329 385 329 q 542 328 478 329 q 553 326 544 328 q 565 326 561 326 q 578 335 578 326 z "},"B":{"ha":815,"x_min":117,"x_max":739,"o":"m 739 258 q 635 47 739 117 q 458 0 564 0 q 349 2 424 0 q 239 4 274 4 q 117 0 175 4 q 121 497 121 271 q 117 964 121 778 q 228 960 174 960 q 331 962 264 960 q 435 964 399 964 q 606 924 540 964 q 703 724 703 864 q 646 567 703 621 q 561 518 613 536 q 528 513 560 518 q 507 503 507 510 q 529 494 507 496 q 564 490 564 490 q 675 432 635 474 q 739 258 739 367 m 586 711 q 404 868 586 868 q 257 864 389 868 q 231 858 235 864 q 226 826 226 853 q 224 611 224 699 l 224 576 q 228 548 224 553 q 253 543 232 543 q 389 546 272 543 q 538 587 490 549 q 586 711 586 625 m 619 264 q 551 415 619 371 q 393 453 499 450 q 249 456 288 456 q 227 451 231 456 q 224 422 224 446 l 224 392 q 225 150 224 181 q 235 103 226 111 q 286 94 243 96 q 418 93 344 93 q 619 264 619 93 z "},"C":{"ha":814,"x_min":82,"x_max":750,"o":"m 750 311 q 668 78 750 165 q 436 -14 583 -14 q 82 457 82 -14 q 442 971 82 971 q 749 647 747 971 q 700 650 725 650 q 639 646 667 650 q 439 872 635 872 q 254 783 313 872 q 192 467 192 686 q 433 81 192 81 q 639 332 635 81 q 706 326 678 326 q 749 329 722 326 q 750 319 749 326 q 750 311 750 314 z "},"D":{"ha":872,"x_min":117,"x_max":792,"o":"m 792 474 q 695 123 792 246 q 413 0 599 0 l 389 0 q 310 2 360 0 q 235 4 261 4 q 117 0 150 4 q 121 464 121 215 q 117 964 121 692 q 232 960 181 960 q 310 962 263 960 q 376 964 358 964 l 394 964 q 792 474 792 964 m 679 475 q 621 747 679 653 q 361 869 544 869 q 261 868 351 869 q 232 863 238 868 q 226 829 226 857 q 222 472 222 646 q 225 179 222 321 q 236 110 226 121 q 299 96 246 99 q 354 94 325 94 q 613 190 538 94 q 679 475 679 276 z "},"E":{"ha":749,"x_min":117,"x_max":647,"o":"m 647 0 q 396 6 549 6 q 117 0 239 6 q 121 481 121 211 q 117 964 121 688 q 388 958 235 958 q 635 964 539 958 q 632 911 632 931 q 635 856 632 885 q 276 860 490 860 q 235 855 242 860 q 228 825 228 850 q 226 597 226 743 l 226 567 q 233 541 226 546 q 264 536 239 536 l 293 536 q 618 542 374 536 q 614 485 614 513 q 618 433 614 457 q 293 438 476 438 l 264 438 q 233 432 240 438 q 226 406 226 426 l 226 378 q 228 138 226 231 q 234 109 228 114 q 268 104 240 104 q 647 110 528 104 q 643 49 643 79 q 647 0 643 24 z "},"F":{"ha":682,"x_min":117,"x_max":635,"o":"m 635 856 q 301 860 467 860 l 264 860 q 233 854 239 860 q 228 825 228 849 q 226 611 226 743 l 226 567 q 232 540 226 544 q 264 536 238 536 q 618 542 374 536 q 614 485 614 513 q 618 433 614 457 q 264 438 476 438 q 233 433 239 438 q 226 406 226 428 q 229 0 226 185 q 175 4 201 4 q 117 0 146 4 q 121 453 121 211 q 117 964 121 688 q 385 958 235 958 q 635 964 539 958 q 632 911 632 931 q 635 856 632 885 z "},"G":{"ha":843,"x_min":79,"x_max":769,"o":"m 769 151 q 619 18 700 57 q 426 -18 544 -18 q 172 101 261 -18 q 79 463 79 225 q 160 821 79 690 q 453 974 254 974 q 637 922 560 974 q 744 778 714 871 q 764 656 764 721 q 710 658 744 658 q 651 656 674 658 q 446 876 636 876 q 189 461 189 876 q 436 75 189 75 q 632 147 569 75 q 663 194 657 176 q 668 275 668 213 q 668 344 668 344 q 628 381 663 381 q 447 375 533 381 q 451 428 451 408 q 447 478 451 433 q 615 474 524 474 q 769 478 708 474 q 767 346 767 417 q 769 151 767 351 z "},"H":{"ha":896,"x_min":119,"x_max":776,"o":"m 776 0 q 721 4 756 4 q 664 0 696 4 q 667 397 667 325 l 667 415 q 662 442 667 436 q 632 447 657 447 q 447 449 578 449 q 263 447 322 449 q 234 443 239 447 q 229 418 229 439 l 229 397 q 232 0 229 128 q 176 4 213 4 q 119 0 149 4 q 124 483 124 229 q 119 964 124 693 q 175 960 144 960 q 232 964 194 960 q 229 601 229 860 l 229 579 q 234 551 229 557 q 260 544 239 544 q 447 542 374 542 q 636 544 543 542 q 663 551 658 544 q 667 581 667 557 l 667 603 q 664 964 667 833 q 718 960 686 960 q 776 964 747 960 q 772 483 772 546 q 776 0 772 322 z "},"I":{"ha":344,"x_min":115,"x_max":228,"o":"m 228 0 q 172 4 206 4 q 115 0 139 4 q 119 461 119 193 q 115 964 119 683 q 172 960 146 960 q 228 964 192 960 q 224 461 224 600 q 228 0 224 274 z "},"J":{"ha":715,"x_min":61,"x_max":601,"o":"m 601 296 q 541 66 601 147 q 322 -15 481 -15 q 118 78 186 -15 q 61 292 61 157 q 63 336 61 317 q 118 331 96 331 q 174 336 143 331 q 172 290 172 313 q 322 78 172 78 q 464 147 429 78 q 490 311 488 190 q 492 578 492 361 q 488 964 492 574 q 547 958 517 958 q 600 964 572 958 q 597 615 597 818 q 599 456 597 563 q 601 296 601 349 z "},"K":{"ha":785,"x_min":119,"x_max":750,"o":"m 750 0 q 672 4 722 4 q 611 0 629 4 q 331 342 525 107 q 250 446 310 365 q 233 469 232 469 q 226 453 226 469 q 228 378 226 429 q 231 314 231 328 l 231 0 q 179 4 210 4 q 119 0 149 4 q 124 464 124 214 q 119 964 124 683 q 175 960 142 960 q 231 964 201 960 l 229 624 q 228 581 229 615 q 226 533 226 547 q 232 514 226 514 q 249 535 232 514 q 343 650 278 572 q 604 964 443 769 q 668 960 636 960 q 726 964 699 960 q 404 588 617 838 q 356 533 374 551 q 322 503 322 501 q 333 489 322 497 q 351 475 350 476 q 418 400 390 435 q 750 0 468 338 z "},"L":{"ha":628,"x_min":117,"x_max":586,"o":"m 586 0 q 353 4 513 4 q 117 0 207 4 q 121 496 121 399 q 117 964 121 703 q 169 960 140 960 q 229 964 199 960 q 225 493 225 743 q 226 304 225 415 q 229 139 229 150 q 233 109 229 114 q 257 104 238 104 l 281 104 q 586 110 474 104 q 583 56 583 88 q 586 0 583 24 z "},"M":{"ha":1118,"x_min":114,"x_max":997,"o":"m 997 0 q 943 4 971 4 q 886 0 914 4 l 888 529 q 894 689 888 579 q 900 847 900 793 q 894 863 900 863 q 868 798 885 863 q 821 624 851 733 q 638 97 761 451 q 608 0 631 78 q 550 4 581 4 q 496 0 519 4 q 467 97 481 57 q 282 621 393 304 q 238 797 256 699 q 214 863 225 863 q 207 846 207 863 q 213 686 207 793 q 219 529 219 579 l 221 0 q 168 4 193 4 q 114 0 143 4 q 117 432 117 178 q 114 964 117 713 q 201 960 144 960 q 279 964 257 960 q 529 231 318 838 q 547 161 542 196 q 557 132 553 132 q 566 160 561 132 q 588 233 571 188 q 831 964 757 710 q 918 958 869 958 q 996 964 967 958 l 994 542 q 997 0 994 226 z "},"N":{"ha":921,"x_min":115,"x_max":804,"o":"m 804 964 q 801 513 801 806 l 801 0 q 722 4 769 4 q 644 0 675 4 q 283 739 529 244 q 254 799 271 764 q 225 854 233 854 q 217 831 217 854 q 220 771 217 811 q 224 711 224 731 l 224 454 q 226 0 224 167 q 178 4 208 4 q 115 0 146 4 q 119 454 119 213 q 115 964 119 713 q 201 958 157 958 q 293 964 246 958 q 631 275 351 842 q 671 181 656 225 q 697 126 690 126 q 703 146 703 126 q 699 214 703 168 q 696 282 696 260 l 696 513 q 693 964 696 763 q 744 960 719 960 q 804 964 769 960 z "},"O":{"ha":896,"x_min":81,"x_max":814,"o":"m 814 468 q 451 -18 814 -18 q 181 104 275 -18 q 81 481 81 233 q 175 846 81 718 q 451 974 269 974 q 814 468 814 974 m 706 472 q 629 786 706 679 q 449 881 561 881 q 190 476 190 881 q 260 172 190 276 q 447 74 326 74 q 706 472 706 74 z "},"P":{"ha":756,"x_min":117,"x_max":693,"o":"m 693 675 q 602 444 693 526 q 361 361 511 361 q 304 363 340 361 q 247 363 268 363 q 228 359 232 363 q 225 340 225 356 l 225 310 q 229 0 225 199 q 176 4 203 4 q 117 0 151 4 q 121 439 121 213 q 117 964 121 690 q 204 961 156 961 q 290 963 235 961 q 376 964 346 964 q 693 675 693 964 m 579 674 q 535 806 579 754 q 379 867 482 867 q 258 863 354 867 q 231 858 236 861 q 226 838 226 854 q 226 814 226 829 q 225 776 225 799 l 225 496 q 229 468 225 474 q 250 461 233 463 q 325 460 283 460 q 579 674 579 460 z "},"Q":{"ha":896,"x_min":81,"x_max":814,"o":"m 814 468 q 528 -11 814 46 q 514 -42 514 -14 q 551 -112 514 -94 q 640 -125 578 -125 q 714 -117 669 -125 q 708 -176 708 -150 q 714 -231 708 -204 q 619 -242 668 -242 q 411 -72 428 -242 q 410 -42 410 -62 q 406 -20 408 -25 q 392 -14 404 -15 q 144 168 224 11 q 81 481 81 292 q 167 828 81 699 q 451 974 263 974 q 814 468 814 974 m 706 472 q 649 753 706 644 q 449 881 582 881 q 190 476 190 881 q 246 199 190 304 q 447 74 313 74 q 649 194 582 74 q 706 472 706 299 z "},"R":{"ha":786,"x_min":117,"x_max":725,"o":"m 725 0 q 669 4 703 4 q 607 0 635 4 q 569 179 581 133 q 522 325 546 279 q 468 389 499 371 q 339 413 426 413 l 264 413 q 230 408 235 413 q 225 375 225 403 l 225 367 q 229 0 225 199 q 176 4 210 4 q 117 0 143 4 q 121 453 121 449 q 119 717 121 558 q 117 964 117 933 q 251 961 151 961 q 334 963 281 961 q 417 964 388 964 q 640 879 565 964 q 704 700 704 808 q 661 550 704 615 q 544 471 618 485 q 517 468 531 469 q 494 458 494 465 q 525 444 494 456 q 575 418 561 431 q 638 324 615 381 q 725 0 656 278 m 590 700 q 381 868 590 868 q 265 864 333 868 q 235 856 243 863 q 226 829 226 850 q 225 569 225 742 l 225 540 q 233 512 225 517 q 268 507 242 507 l 331 507 q 408 510 381 507 q 542 558 500 518 q 590 700 590 603 z "},"S":{"ha":774,"x_min":71,"x_max":703,"o":"m 703 257 q 617 56 703 131 q 388 -19 532 -19 q 163 51 247 -19 q 71 272 71 129 q 74 321 71 297 q 126 317 93 317 q 188 321 161 317 q 185 276 183 293 q 399 79 194 79 q 589 247 589 79 q 478 396 589 346 q 353 442 447 410 q 224 496 269 469 q 94 719 94 568 q 177 906 94 831 q 390 982 260 982 q 597 918 513 982 q 690 728 690 849 q 688 664 690 688 q 633 668 665 668 q 575 664 601 668 q 576 708 575 681 q 522 836 576 792 q 383 881 468 881 q 243 832 290 881 q 204 725 204 790 q 296 589 204 638 q 411 543 333 569 q 536 497 500 514 q 703 257 703 424 z "},"T":{"ha":650,"x_min":21,"x_max":629,"o":"m 629 856 q 421 858 490 858 l 399 858 q 381 856 383 858 q 378 838 378 853 l 378 781 q 382 0 378 408 q 328 4 361 4 q 269 0 294 4 l 274 838 q 246 858 274 858 l 221 858 q 21 856 181 858 q 24 910 24 883 q 21 964 24 938 q 325 960 256 960 q 629 964 451 960 q 626 907 626 938 q 629 856 626 878 z "},"U":{"ha":853,"x_min":115,"x_max":738,"o":"m 738 319 q 663 65 738 147 q 426 -18 589 -18 q 115 319 115 -18 l 115 331 q 117 499 115 388 q 118 669 118 610 q 115 964 118 829 q 172 960 144 960 q 228 964 199 960 q 228 832 228 933 q 226 669 226 731 q 228 331 226 451 q 426 81 231 81 q 578 140 533 81 q 625 331 624 199 l 628 669 q 626 828 628 724 q 625 964 625 932 q 679 958 651 958 q 738 964 706 958 q 736 669 736 869 q 738 506 736 618 q 738 331 738 392 l 738 319 z "},"V":{"ha":819,"x_min":21,"x_max":799,"o":"m 799 964 q 486 0 669 569 q 418 4 463 4 q 340 0 372 4 q 21 964 325 47 q 93 960 49 960 q 147 964 133 960 q 390 185 263 574 q 407 113 396 157 q 415 99 411 99 q 426 113 424 99 q 439 183 429 139 q 678 964 588 643 q 733 960 699 960 q 799 964 768 960 z "},"W":{"ha":1229,"x_min":21,"x_max":1208,"o":"m 1208 964 q 983 0 1121 603 q 907 4 958 4 q 826 0 863 4 q 665 604 815 53 q 629 788 640 696 q 615 850 621 850 q 601 788 608 850 q 564 606 592 711 q 399 0 500 381 q 328 4 372 4 q 249 0 281 4 q 21 964 172 338 q 76 960 49 960 q 142 964 101 960 q 300 235 194 708 q 322 114 306 194 q 331 99 326 99 q 339 114 336 99 q 364 235 347 157 q 554 964 440 511 q 617 960 576 960 q 685 964 658 960 q 874 236 703 881 q 901 114 882 196 q 908 99 906 99 q 914 114 911 99 q 933 236 919 156 q 1094 964 999 515 q 1149 960 1125 960 q 1208 964 1171 960 z "},"X":{"ha":754,"x_min":26,"x_max":726,"o":"m 726 0 q 653 4 693 4 q 588 0 614 4 q 411 324 521 122 q 386 374 403 338 q 372 401 375 401 q 365 393 369 401 q 358 374 361 379 q 333 328 351 360 q 150 0 279 225 q 99 4 133 4 q 26 0 63 4 q 293 456 124 163 q 304 486 304 475 q 299 508 304 499 q 39 964 214 654 q 111 960 78 960 q 168 964 144 960 q 340 653 253 821 q 364 606 349 639 q 379 567 379 567 q 394 606 378 567 q 422 660 404 628 q 589 964 469 750 q 646 960 614 960 q 714 964 678 960 q 458 528 621 807 q 444 494 444 504 q 456 465 444 485 q 726 0 547 313 z "},"Y":{"ha":772,"x_min":21,"x_max":751,"o":"m 751 964 q 471 458 642 769 q 444 392 450 418 q 440 315 440 371 q 442 0 440 178 q 385 4 413 4 q 329 0 357 4 l 332 311 q 327 394 332 369 q 301 458 322 419 q 21 964 196 646 q 86 960 49 960 q 146 964 121 960 q 353 582 224 821 q 376 514 365 558 q 389 490 382 490 q 401 516 394 490 q 431 582 408 542 q 633 964 508 724 q 689 960 656 960 q 751 964 726 960 z "},"Z":{"ha":636,"x_min":28,"x_max":608,"o":"m 608 0 q 240 4 386 4 q 28 0 165 4 q 31 50 31 24 q 28 93 31 75 l 414 756 q 461 826 426 778 q 481 860 481 849 q 454 869 481 869 l 385 869 q 201 865 324 869 q 39 860 67 860 q 42 908 42 878 q 39 964 42 939 q 383 960 272 960 q 601 964 511 960 q 603 922 603 943 q 601 881 603 903 l 164 126 q 151 108 160 118 q 142 94 142 99 q 150 92 142 92 q 174 94 156 92 q 200 97 193 97 l 608 107 q 604 53 604 53 q 608 0 604 29 z "},"[":{"ha":492,"x_min":153,"x_max":388,"o":"m 388 -211 q 271 -208 321 -208 q 153 -211 221 -208 l 156 388 q 153 996 156 749 q 272 994 188 994 q 385 996 354 994 q 383 958 383 971 q 385 926 383 944 l 271 929 q 253 908 253 929 q 251 383 251 733 l 253 -119 q 274 -144 253 -144 q 388 -143 306 -144 q 385 -175 385 -161 q 388 -211 385 -186 z "},"\\":{"ha":596,"x_min":4,"x_max":526,"o":"m 526 -168 q 481 -162 504 -162 q 431 -168 457 -162 q 4 986 207 451 q 57 981 28 981 q 101 985 82 981 q 526 -168 319 361 z "},"]":{"ha":492,"x_min":92,"x_max":326,"o":"m 326 -211 q 207 -210 292 -210 q 94 -211 125 -210 q 96 -174 96 -186 q 94 -142 96 -160 l 208 -144 q 226 -124 226 -144 q 228 407 228 51 l 226 904 q 206 929 226 929 q 92 928 174 929 q 94 960 94 946 q 92 996 94 971 q 208 993 158 993 q 326 996 258 993 l 324 403 q 326 -211 324 36 z "},"^":{"ha":771,"x_min":46,"x_max":729,"o":"m 729 451 q 685 454 713 454 q 636 451 654 454 q 408 835 518 665 q 399 858 408 835 q 385 871 392 871 q 372 857 378 871 q 361 833 361 833 q 136 451 249 650 q 88 454 117 454 q 46 451 60 454 q 338 947 213 717 q 388 944 357 944 q 433 947 417 944 q 729 451 549 742 z "},"_":{"ha":806,"x_min":21,"x_max":785,"o":"m 785 -181 l 21 -181 l 21 -100 l 785 -100 l 785 -181 z "},"`":{"ha":344,"x_min":50,"x_max":294,"o":"m 294 803 q 256 804 283 804 q 214 803 226 804 q 50 1001 156 874 q 121 1004 85 1004 q 186 1001 158 1004 q 294 803 225 931 z "},"a":{"ha":699,"x_min":76,"x_max":607,"o":"m 607 0 l 589 0 q 500 -6 529 0 q 496 88 496 43 q 490 107 496 107 q 476 85 486 107 q 294 -18 431 -18 q 133 35 189 -18 q 76 182 76 88 q 201 381 76 329 q 436 419 256 403 q 488 465 488 424 l 488 481 q 455 590 488 558 q 347 621 422 621 q 236 597 268 621 q 204 521 204 574 q 206 503 204 514 q 207 492 207 493 q 154 496 183 496 q 104 492 131 496 q 103 506 104 494 q 101 519 101 517 q 175 669 101 618 q 350 715 242 715 q 569 604 519 715 q 590 471 590 557 q 590 332 590 425 q 589 210 589 239 q 607 0 589 118 m 490 344 l 490 347 q 486 353 490 353 q 471 349 488 353 q 383 336 439 342 q 293 325 351 333 q 176 181 176 299 q 212 102 176 131 q 299 74 247 74 q 478 199 444 74 q 488 275 488 236 q 489 310 488 288 q 490 344 490 332 z "},"b":{"ha":743,"x_min":96,"x_max":664,"o":"m 664 344 q 400 -14 664 -14 q 267 17 315 -14 q 232 49 250 26 q 217 79 228 53 q 200 101 207 101 q 192 67 192 101 q 193 39 192 60 q 193 6 193 18 l 193 0 q 140 3 176 3 q 96 0 119 3 q 108 178 107 88 q 111 607 111 381 q 108 985 111 829 q 163 981 138 981 q 213 985 183 981 l 210 638 q 206 606 206 618 q 210 593 206 593 q 235 632 213 593 q 321 701 263 682 q 401 714 357 714 q 664 344 664 714 m 556 343 q 514 553 556 485 q 378 621 472 621 q 278 581 321 621 q 218 481 235 542 q 211 357 211 454 q 238 171 211 232 q 389 78 278 78 q 518 144 479 78 q 556 343 556 207 z "},"c":{"ha":646,"x_min":76,"x_max":592,"o":"m 592 464 q 544 468 565 468 q 482 463 521 468 l 479 485 q 347 622 463 622 q 188 333 188 622 q 343 71 188 71 q 445 119 408 71 q 483 249 482 167 q 554 239 513 239 q 590 242 575 239 q 346 -19 564 -19 q 76 335 76 -19 q 149 617 76 518 q 360 715 222 715 q 589 490 565 715 l 592 464 z "},"d":{"ha":740,"x_min":75,"x_max":653,"o":"m 653 0 l 636 0 q 547 -6 576 0 q 546 99 546 25 q 539 114 546 114 q 525 98 533 114 q 508 66 517 82 q 482 36 499 50 q 328 -14 421 -14 q 75 339 75 -14 q 133 599 75 501 q 340 714 201 714 q 447 690 400 714 q 513 621 493 667 q 532 593 525 593 q 536 601 536 593 q 531 650 536 597 q 528 701 528 675 l 526 985 q 578 981 549 981 q 635 985 606 981 q 632 601 632 821 q 635 188 632 458 q 653 0 636 113 m 528 354 l 528 417 q 510 517 528 479 q 361 621 460 621 q 222 549 264 621 q 183 342 183 483 q 224 142 183 207 q 354 78 264 78 q 471 126 422 78 q 524 233 514 169 q 528 354 528 257 z "},"e":{"ha":685,"x_min":75,"x_max":619,"o":"m 619 199 q 358 -19 585 -19 q 75 328 75 -19 q 152 613 75 508 q 363 717 229 717 q 549 629 482 717 q 615 369 615 542 q 614 329 615 361 q 390 335 532 335 l 207 335 q 186 330 190 335 q 182 311 182 325 l 182 301 q 230 133 182 193 q 364 72 278 72 q 521 201 496 72 q 589 196 563 196 q 619 199 604 196 m 503 454 q 501 475 503 465 q 353 625 481 625 q 242 575 288 625 q 183 443 197 525 q 182 428 182 435 q 213 410 182 410 q 303 408 281 408 q 469 414 386 408 q 498 422 493 415 q 503 454 503 428 z "},"f":{"ha":414,"x_min":25,"x_max":393,"o":"m 393 921 q 389 874 393 893 q 324 888 354 888 q 260 849 278 888 q 247 764 249 824 q 246 740 247 757 q 244 715 244 724 q 248 696 244 700 q 267 692 251 692 q 390 694 354 692 q 389 649 389 682 q 390 601 389 614 q 261 604 318 604 q 244 588 244 604 q 247 0 244 324 q 194 6 215 6 q 142 0 175 6 q 144 589 144 244 q 126 604 144 604 q 25 601 100 604 q 28 649 28 619 q 25 694 28 679 q 124 692 75 692 q 143 715 143 692 q 142 747 143 728 q 140 769 140 765 q 187 934 140 881 q 314 988 233 988 q 389 975 351 988 q 393 921 393 946 z "},"g":{"ha":742,"x_min":75,"x_max":646,"o":"m 646 700 q 626 338 626 494 q 628 156 626 278 q 629 -24 629 35 q 351 -275 629 -275 q 114 -97 114 -275 q 174 -100 138 -100 q 225 -97 207 -100 q 358 -190 225 -190 q 480 -147 433 -190 q 526 -26 526 -103 l 526 19 q 531 75 526 51 q 535 101 535 99 q 528 114 535 114 q 486 57 526 114 q 346 -7 440 -7 q 146 83 217 -7 q 75 349 75 174 q 144 616 75 522 q 340 710 213 710 q 510 621 457 710 q 519 600 515 610 q 536 586 526 586 q 547 700 547 586 q 594 694 564 694 q 646 700 625 694 m 524 353 q 513 485 524 447 q 354 619 472 619 q 182 357 182 619 q 226 142 182 206 q 360 83 268 83 q 515 214 476 83 q 524 353 524 242 z "},"h":{"ha":726,"x_min":111,"x_max":618,"o":"m 618 0 q 563 6 596 6 q 507 0 531 6 q 513 274 508 88 l 514 379 q 513 446 514 415 q 490 568 508 532 q 393 622 464 622 q 264 554 313 622 q 215 374 215 486 q 218 0 215 306 q 164 6 199 6 q 111 0 139 6 q 115 453 115 188 q 111 985 115 715 q 163 979 138 979 q 218 985 186 979 l 217 694 q 213 632 217 658 q 207 578 207 594 q 213 558 207 558 q 229 590 215 558 q 296 674 250 639 q 424 715 351 715 q 603 596 563 715 q 618 489 618 550 q 618 382 618 453 q 617 274 617 310 q 618 0 617 113 z "},"i":{"ha":344,"x_min":117,"x_max":226,"o":"m 226 850 q 175 854 206 854 q 117 850 142 854 q 121 922 121 888 q 117 985 121 957 q 176 982 140 982 q 226 985 210 982 q 224 917 224 963 q 226 850 224 874 m 226 0 q 171 6 199 6 q 117 0 136 6 q 121 332 121 146 q 117 694 121 514 q 172 689 136 689 q 226 694 200 689 q 224 338 224 576 q 226 0 224 101 z "},"j":{"ha":344,"x_min":-67,"x_max":226,"o":"m 226 850 q 175 854 206 854 q 117 850 142 854 q 119 922 119 875 q 117 985 119 965 q 176 982 140 982 q 226 985 210 982 q 224 918 224 963 q 226 850 224 874 m 226 -22 q 183 -197 226 -139 q 13 -267 132 -267 q -67 -256 -24 -267 q -64 -206 -64 -235 q -67 -157 -64 -176 q 7 -167 -26 -167 q 106 -122 83 -167 q 119 -11 118 -97 q 121 176 121 49 q 117 694 121 303 q 172 689 143 689 q 226 694 197 689 q 225 542 225 646 l 225 406 q 226 193 225 335 q 226 -11 226 50 l 226 -22 z "},"k":{"ha":682,"x_min":117,"x_max":664,"o":"m 664 0 q 588 6 614 6 q 529 0 546 6 q 319 296 446 117 q 294 318 304 318 q 276 310 288 318 q 225 231 225 274 l 225 163 l 226 0 q 179 6 206 6 q 117 0 144 6 q 119 518 119 183 q 117 985 119 854 q 176 979 143 979 q 226 985 200 979 q 224 456 225 774 q 222 404 224 439 q 218 361 218 349 q 222 349 218 349 q 247 379 224 349 q 286 425 263 400 q 514 694 390 540 q 568 688 531 688 q 640 694 592 688 l 629 682 q 426 456 557 601 q 376 408 421 450 q 368 393 368 400 q 376 375 368 383 q 424 321 390 361 q 664 0 531 175 z "},"l":{"ha":344,"x_min":117,"x_max":228,"o":"m 228 0 q 176 6 203 6 q 117 0 144 6 q 119 489 119 176 q 117 985 119 751 q 176 979 143 979 q 228 985 201 979 q 225 489 225 746 q 228 0 225 167 z "},"m":{"ha":1111,"x_min":99,"x_max":1004,"o":"m 1004 432 q 1004 360 1004 404 q 1003 308 1003 317 l 1003 0 q 950 6 969 6 q 893 0 938 6 q 900 308 900 165 l 900 451 q 783 624 900 624 q 649 554 694 624 q 610 401 610 494 l 610 308 l 613 0 q 561 6 583 6 q 504 0 532 6 q 507 300 507 136 q 506 476 507 403 q 390 624 503 624 q 257 549 304 624 q 218 393 218 485 l 218 294 q 219 0 218 94 q 168 6 192 6 q 111 0 150 6 q 113 165 113 63 l 113 321 q 111 518 113 444 q 99 694 110 615 q 158 689 140 689 q 208 694 181 689 q 211 640 211 675 q 210 608 211 629 q 208 575 208 586 q 211 563 208 563 q 224 583 217 563 q 301 688 249 656 q 414 715 347 715 q 538 678 492 715 q 588 583 576 646 q 594 564 590 564 q 606 589 597 564 q 667 676 622 642 q 799 715 718 715 q 1003 500 990 715 q 1004 432 1004 476 z "},"n":{"ha":738,"x_min":99,"x_max":629,"o":"m 629 0 q 578 6 607 6 q 521 0 549 6 q 524 239 524 96 q 522 454 524 332 q 501 571 521 533 q 400 625 474 625 q 288 581 333 625 q 217 381 217 513 q 217 329 217 367 q 218 267 218 288 l 219 0 q 161 6 182 6 q 111 0 139 6 q 113 224 113 88 l 113 368 q 108 581 113 503 q 99 694 104 658 q 151 689 125 689 q 207 694 178 689 q 210 656 210 678 q 208 610 210 640 q 206 564 206 581 q 208 553 206 553 q 219 569 213 553 q 230 593 225 582 q 247 624 235 604 q 424 711 311 711 q 576 649 525 711 q 628 481 628 588 l 628 310 q 629 0 628 85 z "},"o":{"ha":711,"x_min":75,"x_max":642,"o":"m 642 347 q 567 74 642 168 q 358 -21 493 -21 q 149 74 224 -21 q 75 347 75 168 q 149 621 75 526 q 358 715 224 715 q 567 621 493 715 q 642 347 642 526 m 533 347 q 358 622 533 622 q 183 347 183 622 q 358 72 183 72 q 533 347 533 72 z "},"p":{"ha":746,"x_min":89,"x_max":671,"o":"m 671 358 q 613 97 671 196 q 404 -21 543 -21 q 233 78 275 -21 q 214 107 221 107 q 210 99 210 107 q 213 49 210 82 q 217 -1 217 15 l 218 -262 q 168 -257 197 -257 q 107 -262 133 -257 q 110 92 110 -99 q 107 506 110 235 q 89 693 106 581 q 122 692 107 692 q 199 699 163 692 q 200 594 200 668 q 207 579 200 579 q 221 594 214 579 q 417 715 281 715 q 671 358 671 715 m 563 356 q 390 624 563 624 q 275 567 332 624 q 219 428 226 517 q 217 313 217 389 q 219 222 217 247 q 274 116 226 160 q 385 72 322 72 q 524 146 482 72 q 563 356 563 214 z "},"q":{"ha":746,"x_min":76,"x_max":643,"o":"m 643 694 q 639 524 642 679 q 636 94 636 321 q 639 -262 636 -107 q 578 -256 607 -256 q 528 -262 554 -256 l 532 64 q 535 96 535 86 q 531 108 535 108 q 506 69 528 108 q 339 -12 460 -12 q 76 357 76 -12 q 340 715 76 715 q 474 685 425 715 q 508 653 490 675 q 526 615 513 649 q 544 588 538 588 q 554 613 550 588 q 558 650 556 632 q 560 679 560 668 q 560 694 560 694 q 604 692 576 692 q 643 694 619 692 m 529 340 q 519 483 529 443 q 351 624 486 624 q 223 559 261 624 q 185 358 185 494 q 226 149 185 217 q 363 81 268 81 q 465 117 422 81 q 522 213 507 154 q 529 340 529 239 z "},"r":{"ha":456,"x_min":101,"x_max":426,"o":"m 426 656 q 424 594 426 614 q 393 599 408 599 q 254 506 299 599 q 219 331 219 436 q 221 0 219 135 q 164 6 199 6 q 113 0 135 6 q 115 338 115 94 q 117 397 115 351 q 117 458 117 438 q 114 564 117 506 q 101 694 110 650 q 154 689 126 689 q 204 694 186 689 q 211 621 211 667 q 211 594 211 613 q 210 568 210 576 q 214 554 210 554 q 226 574 217 554 q 251 624 243 608 q 289 668 268 650 q 408 714 342 714 q 424 713 408 714 q 426 656 426 697 z "},"s":{"ha":631,"x_min":60,"x_max":564,"o":"m 564 201 q 494 42 564 104 q 307 -19 424 -19 q 60 204 60 -19 l 60 217 q 110 213 83 213 q 158 217 135 213 l 158 207 q 201 97 158 129 q 315 71 239 71 q 423 101 382 71 q 464 186 464 132 q 363 292 464 260 q 176 349 269 319 q 78 514 78 397 q 144 658 78 600 q 314 715 211 715 q 496 642 435 715 q 535 546 525 606 q 538 499 538 528 q 497 501 517 501 q 442 497 469 501 q 439 529 442 515 q 308 622 421 622 q 179 524 179 622 q 279 417 179 449 q 464 363 371 389 q 564 201 564 314 z "},"t":{"ha":426,"x_min":38,"x_max":401,"o":"m 401 43 q 399 0 401 22 q 289 -18 336 -18 q 157 22 197 -18 q 113 165 113 65 l 113 178 q 114 288 113 206 q 114 417 114 369 l 114 471 q 115 546 114 511 q 117 570 115 556 q 118 589 118 585 q 101 604 118 604 q 85 603 99 604 q 38 601 71 601 q 39 626 39 615 q 38 653 39 636 q 144 850 106 692 q 176 853 157 853 q 221 850 199 853 q 218 701 218 710 q 228 692 218 692 l 239 692 q 389 694 247 692 q 388 649 388 679 q 389 601 388 617 q 246 604 224 604 q 218 572 218 604 q 217 389 217 474 q 218 194 217 256 q 235 103 219 124 q 319 75 254 75 q 399 90 350 75 q 401 43 401 65 z "},"u":{"ha":740,"x_min":108,"x_max":640,"o":"m 640 3 q 588 8 614 8 q 532 3 561 8 q 528 61 528 28 q 531 97 528 74 q 533 133 533 121 q 529 144 533 144 q 510 105 522 128 q 467 42 497 82 q 315 -14 408 -14 q 161 51 214 -14 q 110 222 110 113 l 110 388 q 108 697 110 611 q 164 692 135 692 q 218 697 193 692 q 215 388 215 601 l 215 243 q 246 110 215 149 q 339 72 276 72 q 481 153 431 72 q 522 317 522 219 q 521 504 522 365 q 519 697 519 664 q 575 692 550 692 q 628 697 600 692 q 626 468 626 610 q 628 232 626 325 q 640 3 631 65 z "},"v":{"ha":640,"x_min":21,"x_max":619,"o":"m 619 694 q 386 0 522 408 q 321 4 361 4 q 258 0 279 4 q 21 694 181 224 q 94 690 64 690 q 140 694 125 690 q 299 188 189 536 q 317 108 306 156 q 325 96 319 96 q 333 108 331 96 q 351 186 342 157 q 504 694 378 269 q 549 689 521 689 q 619 694 578 689 z "},"w":{"ha":964,"x_min":21,"x_max":943,"o":"m 943 694 q 768 0 874 431 q 693 7 746 7 q 626 0 660 7 q 526 372 622 15 q 493 538 503 461 q 490 576 492 557 q 482 594 489 594 q 468 538 475 594 q 435 374 460 465 q 333 0 401 257 q 272 7 310 7 q 194 0 226 7 q 21 694 136 228 q 86 690 63 690 q 133 694 111 690 q 238 232 192 422 q 260 110 243 190 q 271 96 263 96 q 281 110 278 96 q 306 232 289 154 q 407 621 343 367 l 424 694 q 486 689 444 689 q 549 694 533 689 l 565 621 q 663 233 596 485 q 689 110 671 192 q 700 96 693 96 q 708 110 706 96 q 728 233 714 151 q 835 694 764 388 q 878 690 847 690 q 943 694 910 690 z "},"x":{"ha":596,"x_min":21,"x_max":575,"o":"m 575 0 q 510 6 542 6 q 443 0 479 6 q 331 215 401 81 q 304 272 321 233 q 292 297 293 297 q 279 272 293 297 q 256 219 272 254 q 139 0 219 150 q 88 6 122 6 q 21 0 68 6 l 215 335 q 226 363 226 354 q 221 390 226 381 q 40 694 164 485 q 103 689 75 689 q 165 694 131 689 q 261 511 165 693 q 288 453 276 482 q 301 432 296 432 q 314 453 306 432 q 344 518 333 497 q 435 694 372 575 q 481 689 457 689 q 551 694 504 689 q 376 399 489 589 q 364 369 364 376 q 375 338 364 357 q 575 0 440 228 z "},"y":{"ha":628,"x_min":21,"x_max":607,"o":"m 607 694 l 382 0 q 308 -185 338 -139 q 154 -275 251 -275 q 64 -265 107 -275 q 68 -225 68 -246 q 64 -165 68 -219 q 144 -179 110 -179 q 231 -140 196 -179 q 265 -44 265 -101 q 247 53 265 -3 q 214 144 231 99 q 21 694 147 328 q 89 690 64 690 q 140 694 125 690 q 297 190 188 538 q 315 111 304 158 q 324 99 318 99 q 332 111 329 99 q 349 189 343 169 q 422 443 382 290 q 492 694 472 628 q 543 689 508 689 q 607 694 565 689 z "},"z":{"ha":569,"x_min":49,"x_max":521,"o":"m 521 0 q 204 4 333 4 q 49 0 83 4 q 51 43 51 18 q 49 88 51 68 q 340 543 158 254 q 367 575 346 553 q 383 597 383 593 q 369 603 383 603 q 352 601 364 603 q 336 600 340 600 l 269 600 q 75 594 243 600 q 79 649 79 617 q 75 694 79 672 q 350 689 224 689 q 508 694 464 689 q 510 656 510 681 q 508 614 510 629 q 213 154 388 429 q 183 117 200 135 q 172 99 172 104 q 181 94 172 94 q 207 94 182 94 q 247 96 235 96 q 521 100 413 97 q 518 44 518 67 q 521 0 518 26 z "},"{":{"ha":454,"x_min":86,"x_max":376,"o":"m 376 -210 q 351 -210 376 -210 q 224 -172 263 -210 q 178 -26 178 -129 q 183 88 178 -8 q 189 203 189 185 q 172 314 189 278 q 86 376 149 368 q 89 404 89 389 q 86 433 89 421 q 189 603 189 446 q 183 708 189 619 q 176 813 176 797 q 219 958 176 917 q 376 999 261 999 q 374 974 374 988 q 376 949 374 958 q 292 913 313 947 q 275 818 275 886 q 281 713 275 801 q 286 607 286 624 q 219 432 286 482 q 183 421 214 428 q 160 404 160 415 q 183 386 160 392 q 219 375 215 378 q 286 193 286 331 q 281 81 286 176 q 275 -31 275 -14 q 292 -122 275 -96 q 376 -158 313 -157 q 372 -186 372 -172 q 376 -210 372 -200 z "},"|":{"ha":326,"x_min":121,"x_max":206,"o":"m 206 -179 q 165 -176 192 -176 q 121 -179 139 -176 q 125 396 125 81 q 121 1006 125 706 q 165 1003 149 1003 q 206 1006 186 1003 l 203 396 q 206 -179 203 51 z "},"}":{"ha":454,"x_min":76,"x_max":368,"o":"m 368 356 q 265 186 265 343 q 272 81 265 169 q 278 -24 278 -8 q 235 -169 278 -128 q 76 -210 192 -210 q 81 -185 81 -193 q 76 -160 81 -175 q 164 -122 142 -158 q 179 -29 179 -96 q 174 76 179 -12 q 168 182 168 165 q 235 357 168 307 q 271 368 240 361 q 294 385 294 374 q 271 403 294 397 q 235 414 239 411 q 168 596 168 458 q 174 708 168 613 q 179 819 179 803 q 163 911 179 885 q 76 947 140 946 q 82 974 82 965 q 76 999 82 986 q 101 999 76 999 q 231 961 190 999 q 276 815 276 918 q 270 701 276 797 q 264 586 264 604 q 368 413 264 426 q 364 383 364 394 q 368 356 364 375 z "},"~":{"ha":907,"x_min":94,"x_max":813,"o":"m 813 807 q 749 661 800 714 q 615 608 697 608 q 435 672 550 608 q 275 736 319 736 q 154 621 192 736 q 132 624 144 624 q 94 621 136 624 q 158 767 108 714 q 286 821 207 821 q 465 754 349 821 q 628 688 581 688 q 751 807 715 688 q 779 803 768 803 q 813 807 788 803 z "},"†":{"ha":725,"x_min":51,"x_max":674,"o":"m 674 563 q 439 571 522 569 q 422 573 429 571 q 414 575 414 575 q 411 571 411 574 q 413 563 411 569 q 414 550 414 557 q 419 411 419 389 q 414 72 419 299 q 408 -267 408 -154 q 358 -262 381 -262 q 315 -268 340 -262 q 310 69 315 -156 q 304 407 304 294 q 307 476 304 429 q 311 549 311 533 q 313 565 311 558 q 314 571 314 571 q 310 575 313 574 q 289 571 307 574 q 51 563 190 571 q 61 619 61 607 q 53 682 61 635 q 292 671 204 672 q 313 667 301 671 l 314 671 q 314 679 314 674 q 313 694 313 685 q 301 989 308 860 q 364 982 346 982 q 424 989 390 982 q 413 697 415 821 q 408 671 413 682 l 413 667 q 438 674 421 674 q 672 678 496 674 q 664 619 664 633 q 674 563 664 610 z "},"¢":{"ha":657,"x_min":76,"x_max":606,"o":"m 606 317 q 561 168 601 232 q 440 75 517 97 q 413 63 418 68 q 403 26 403 53 q 406 -68 403 32 q 361 -62 389 -62 q 310 -68 333 -62 q 313 31 313 7 q 282 72 313 65 q 76 392 76 114 q 121 607 76 519 q 288 736 175 713 q 314 767 314 742 q 311 858 314 793 q 360 853 333 853 q 407 858 388 853 q 404 764 404 794 q 428 733 404 738 q 600 507 597 701 q 563 510 588 510 q 493 506 518 510 q 492 536 493 517 q 364 656 481 656 q 185 399 185 656 q 353 151 185 151 q 500 317 493 151 q 563 311 531 311 q 606 317 583 311 z "},"£":{"ha":758,"x_min":32,"x_max":722,"o":"m 722 219 q 660 37 717 94 q 476 -21 603 -21 q 318 8 417 -21 q 174 36 219 36 q 126 -4 135 36 q 71 3 97 3 q 32 0 54 3 q 97 114 36 83 q 166 140 132 126 q 228 185 200 153 q 261 276 261 225 q 240 407 261 310 q 233 431 236 426 q 213 435 229 435 q 81 432 199 435 q 85 474 85 453 q 81 524 85 500 q 142 521 92 524 q 201 518 179 518 q 213 526 213 518 q 208 540 213 526 q 182 703 182 629 q 252 902 182 829 q 456 975 322 975 q 694 747 694 975 q 643 753 669 753 q 592 747 618 753 q 560 852 589 818 q 458 886 531 886 q 283 713 283 886 q 304 551 283 653 q 326 518 311 518 q 422 521 364 518 q 519 524 501 524 q 515 475 515 501 q 519 433 515 454 q 340 438 360 438 q 333 432 333 438 q 338 418 333 435 q 353 299 353 356 q 283 135 353 183 q 264 114 264 121 q 283 106 264 106 l 296 106 q 351 103 319 106 q 422 90 371 101 q 493 82 465 82 q 594 118 564 82 q 624 219 619 147 q 674 214 649 214 q 722 219 700 214 z "},"§":{"ha":736,"x_min":54,"x_max":664,"o":"m 664 383 q 575 208 664 274 q 542 194 571 206 q 529 188 529 190 q 564 168 529 182 q 636 97 610 150 q 660 -7 660 50 q 586 -179 660 -112 q 358 -253 506 -253 q 54 1 64 -253 q 110 -7 78 -7 q 167 1 138 -7 q 222 -124 172 -87 q 356 -156 265 -156 q 547 -17 547 -156 q 433 117 547 69 q 247 174 340 144 q 86 369 86 232 q 117 486 86 433 q 201 557 149 539 q 233 569 233 568 q 219 576 233 571 q 190 589 201 582 q 108 753 108 647 q 172 908 108 846 q 378 979 244 979 q 657 744 639 979 q 601 753 631 753 q 546 746 576 753 q 378 888 540 888 q 217 758 217 888 q 328 633 217 678 q 507 581 417 607 q 664 383 664 524 m 556 367 q 404 503 556 465 q 325 519 338 519 q 293 513 310 519 q 193 386 193 471 q 249 289 193 322 q 418 239 332 239 q 458 243 449 239 q 556 367 556 285 z "},"•":{"ha":707,"x_min":190,"x_max":517,"o":"m 517 494 q 468 378 517 426 q 353 331 419 331 q 238 378 286 331 q 190 494 190 426 q 238 612 190 563 q 353 661 286 661 q 468 612 419 661 q 517 494 517 563 z "},"¶":{"ha":736,"x_min":54,"x_max":619,"o":"m 619 -235 q 582 -231 597 -231 q 550 -235 567 -231 q 551 117 551 -125 l 550 868 q 528 903 550 901 q 500 904 499 904 q 467 903 499 904 q 442 871 442 901 q 439 308 439 658 q 442 -235 439 -76 q 404 -231 419 -231 q 371 -235 389 -231 l 372 174 q 374 281 372 228 q 374 375 374 317 q 363 421 374 411 q 325 432 353 431 q 54 700 54 449 q 361 963 54 963 q 446 963 389 963 q 529 961 501 961 q 619 963 589 961 q 614 333 614 625 q 619 -235 614 28 z "},"ß":{"ha":771,"x_min":113,"x_max":718,"o":"m 718 258 q 644 59 718 133 q 444 -15 569 -15 q 264 21 333 -15 q 289 114 289 64 l 289 117 q 440 75 358 75 q 611 265 611 75 q 518 463 611 406 q 310 506 447 506 q 278 504 310 506 q 285 557 285 532 q 278 606 285 583 q 319 604 293 604 q 464 635 418 604 q 526 760 526 676 q 385 903 526 903 q 243 832 282 903 q 215 663 215 779 l 215 0 q 161 8 182 8 q 113 0 138 8 l 114 250 l 113 667 q 385 993 113 993 q 574 926 508 993 q 633 763 633 865 q 501 582 633 635 q 458 574 490 578 q 436 563 436 571 q 458 552 436 556 q 500 546 479 549 q 718 258 718 501 z "},"´":{"ha":344,"x_min":44,"x_max":300,"o":"m 300 985 q 142 794 239 918 q 101 799 113 799 q 44 794 75 799 q 158 985 85 860 q 228 990 178 990 q 300 985 281 990 z "},"¨":{"ha":344,"x_min":-15,"x_max":358,"o":"m 358 831 q 300 835 336 835 q 239 831 264 835 q 242 890 242 851 q 239 957 242 929 q 301 953 264 953 q 358 957 336 953 q 356 892 356 929 q 358 831 356 851 m 107 832 q 44 835 85 835 q -15 832 4 835 q -14 893 -14 849 q -15 958 -14 939 q 47 957 1 957 q 107 958 92 957 q 104 900 104 936 q 107 832 104 861 z "},"Æ":{"ha":1218,"x_min":21,"x_max":1115,"o":"m 1115 0 q 858 7 992 7 q 586 0 694 7 l 586 46 l 589 203 q 581 240 583 235 q 553 251 575 251 q 464 253 494 253 q 300 250 379 253 q 239 207 260 249 q 143 0 178 82 q 85 7 107 7 q 21 0 46 7 q 506 964 308 550 q 692 956 574 956 q 785 957 722 956 q 881 957 847 957 q 1103 963 1007 957 q 1100 907 1100 929 q 1103 854 1100 883 q 746 858 958 858 q 704 853 711 858 q 697 824 697 849 q 694 565 694 658 q 701 540 694 544 q 732 535 707 535 q 1088 540 843 535 q 1083 483 1083 511 q 1088 432 1083 456 q 785 436 946 436 l 733 436 q 702 431 710 436 q 694 404 694 425 q 696 138 694 231 q 738 104 696 104 q 1115 110 996 104 q 1113 49 1113 89 q 1115 0 1113 15 m 593 867 q 582 896 593 896 q 554 863 568 896 l 529 803 q 310 357 451 640 q 304 342 304 346 q 319 333 304 333 q 360 335 333 333 q 400 335 386 335 q 539 336 490 335 q 582 343 576 338 q 589 385 583 344 l 589 788 q 591 836 589 808 q 593 867 593 864 z "},"Ø":{"ha":896,"x_min":81,"x_max":814,"o":"m 814 468 q 451 -18 814 -18 q 249 42 332 -18 q 229 53 233 53 q 214 36 224 53 q 175 -31 201 14 q 117 15 142 8 l 165 88 q 176 111 176 104 q 164 133 176 114 q 81 481 81 265 q 175 846 81 718 q 451 974 269 974 q 651 914 569 974 q 671 901 668 901 q 683 914 675 901 q 721 983 707 951 q 781 943 754 950 l 735 868 q 725 843 725 853 q 733 822 725 836 q 814 468 814 692 m 610 800 q 592 824 610 807 q 449 881 531 881 q 190 476 190 881 q 226 246 190 344 q 240 211 239 211 q 250 220 246 211 q 257 238 254 229 q 597 774 396 454 q 610 800 610 794 m 706 472 q 667 706 706 604 q 661 726 664 715 q 653 738 658 738 q 644 726 649 738 q 636 708 638 710 q 299 178 524 536 q 286 150 286 157 q 301 128 286 142 q 447 74 361 74 q 706 472 706 74 z "},"¥":{"ha":738,"x_min":35,"x_max":703,"o":"m 703 942 q 493 557 561 692 q 471 515 471 514 q 482 508 471 508 q 513 513 488 508 l 664 515 q 660 479 660 492 q 664 444 660 465 q 558 447 644 444 q 449 449 490 449 q 426 424 438 449 q 414 369 414 399 q 432 338 414 338 q 664 340 451 338 q 660 310 660 324 q 664 271 660 297 q 450 274 524 274 q 418 250 418 274 q 419 139 418 210 q 422 0 422 53 q 369 7 396 7 q 315 0 344 7 l 321 253 q 293 274 321 274 q 86 271 271 274 q 89 297 89 286 q 86 340 89 294 q 188 340 114 340 q 290 339 263 339 q 319 363 319 339 q 286 449 319 449 q 183 447 249 449 q 86 444 103 444 q 89 478 89 458 q 86 515 89 499 l 224 513 q 239 510 226 513 q 257 508 251 508 q 264 514 264 508 q 243 556 264 513 q 35 942 151 743 q 89 939 53 939 q 151 942 126 939 q 343 546 221 782 q 358 510 343 546 q 372 490 367 490 q 388 511 379 490 q 401 546 394 528 q 593 942 497 732 q 651 939 615 939 q 703 942 685 939 z "},"ª":{"ha":485,"x_min":81,"x_max":396,"o":"m 396 538 l 379 538 q 326 533 349 538 q 325 572 325 549 l 325 588 q 322 589 325 589 q 313 576 321 589 q 301 561 304 563 q 211 528 267 528 q 81 644 81 528 q 156 761 81 731 q 293 783 188 774 q 319 807 319 786 l 319 815 q 242 892 319 892 q 163 839 163 892 q 164 818 163 839 q 131 821 147 821 q 99 818 117 821 q 97 838 97 839 q 142 926 97 896 q 243 953 179 953 q 374 888 344 953 q 386 810 386 860 q 386 731 386 783 q 385 661 385 678 q 396 538 385 608 m 322 731 q 315 736 322 736 q 289 733 307 736 q 264 729 271 729 q 186 715 206 724 q 146 644 146 696 q 221 586 146 586 q 319 699 319 586 q 321 715 319 704 q 322 731 322 725 z "},"º":{"ha":493,"x_min":82,"x_max":417,"o":"m 417 738 q 250 525 417 525 q 82 738 82 525 q 250 951 82 951 q 417 738 417 951 m 349 738 q 250 892 349 892 q 151 738 151 892 q 250 585 151 585 q 349 738 349 585 z "},"æ":{"ha":1093,"x_min":76,"x_max":1028,"o":"m 1028 199 q 767 -19 993 -19 q 571 50 640 -19 q 547 82 561 58 q 532 100 538 100 q 513 75 529 100 q 493 46 497 50 q 307 -18 429 -18 q 76 182 76 -18 q 196 378 76 325 q 436 418 263 408 q 479 427 471 421 q 488 458 488 433 l 488 481 q 455 590 488 558 q 347 621 422 621 q 236 597 268 621 q 204 521 204 574 q 206 503 204 514 q 207 492 207 493 q 154 496 183 496 q 104 492 131 496 q 103 506 104 494 q 101 519 101 517 q 175 669 101 618 q 350 715 242 715 q 543 635 499 715 q 563 604 560 604 q 583 624 569 604 q 614 661 604 651 q 771 717 671 717 q 958 629 890 717 q 1025 369 1025 542 q 1024 329 1025 361 q 621 335 943 335 q 596 328 601 335 q 590 304 590 321 q 631 143 590 204 q 774 72 678 72 q 929 201 904 72 q 997 196 971 196 q 1028 199 1013 196 m 913 454 q 911 475 913 465 q 763 625 890 625 q 651 575 697 625 q 592 443 606 525 q 590 428 590 435 q 621 410 590 410 q 713 408 689 408 q 878 414 794 408 q 913 454 913 417 m 490 325 q 471 342 490 342 l 458 342 q 383 336 447 342 q 293 325 351 333 q 176 181 176 299 q 311 74 176 74 q 442 126 396 74 q 489 275 489 179 q 490 300 489 288 q 490 325 490 313 z "},"ø":{"ha":711,"x_min":72,"x_max":639,"o":"m 639 347 q 565 74 639 168 q 356 -21 490 -21 q 214 14 274 -21 q 190 25 194 25 q 175 8 185 25 l 147 -37 l 89 4 l 126 57 q 139 79 139 75 q 126 101 139 81 q 72 347 72 193 q 147 621 72 526 q 356 715 221 715 q 501 678 440 715 q 522 668 517 668 q 538 685 528 668 l 563 729 l 626 692 q 585 635 613 675 q 576 614 576 622 q 585 592 576 606 q 639 347 639 500 m 463 578 q 447 597 463 588 q 356 622 410 622 q 181 347 181 622 q 194 213 181 271 q 204 178 203 178 q 224 207 210 178 l 453 557 q 463 578 463 572 m 531 347 q 518 476 531 421 q 515 503 517 489 q 507 518 513 518 q 497 507 501 518 q 489 488 490 489 l 260 139 q 249 115 249 122 q 294 83 249 96 q 356 72 331 72 q 531 347 531 72 z "},"¿":{"ha":685,"x_min":64,"x_max":624,"o":"m 451 596 q 389 599 425 599 q 331 596 350 599 q 335 661 335 628 q 331 724 335 696 q 394 717 369 717 q 451 724 421 717 q 447 656 447 690 q 451 596 447 621 m 624 8 q 550 -184 624 -117 q 344 -251 476 -251 q 138 -182 211 -251 q 64 18 64 -112 q 107 176 64 114 q 244 289 147 235 q 319 349 300 321 q 340 442 340 382 l 340 474 q 392 468 365 468 q 444 474 413 468 l 444 451 q 375 261 444 322 q 246 181 311 221 q 176 26 176 131 q 215 -113 176 -68 q 347 -158 254 -158 q 483 -115 444 -158 q 518 24 518 -75 q 568 19 538 19 q 624 25 593 19 l 624 8 z "},"¡":{"ha":460,"x_min":164,"x_max":296,"o":"m 289 596 q 233 599 260 599 q 168 596 207 599 q 171 664 171 625 q 168 724 171 701 q 226 717 197 717 q 289 724 250 717 q 288 660 288 710 q 289 596 288 608 m 296 -244 q 226 -239 263 -239 q 164 -244 190 -239 q 176 119 164 -165 q 194 483 188 397 q 226 481 210 481 q 264 483 239 481 q 283 119 271 393 q 296 -244 296 -165 z "},"ƒ":{"ha":738,"x_min":42,"x_max":746,"o":"m 746 965 q 724 861 728 919 q 651 868 678 868 q 579 849 603 868 q 497 654 531 808 q 496 643 496 647 q 515 629 496 629 q 668 633 492 629 q 654 536 654 588 q 499 542 506 542 q 472 515 478 542 l 397 108 q 376 13 392 81 q 263 -179 343 -129 q 108 -214 206 -214 q 42 -210 86 -214 q 60 -107 58 -162 q 103 -108 79 -108 q 229 -73 197 -108 q 289 108 261 -37 l 368 515 q 369 526 369 522 q 351 542 369 542 q 236 536 346 542 q 251 633 250 579 q 368 629 385 629 q 390 653 385 629 q 397 678 393 663 q 468 875 426 814 q 686 971 532 971 q 746 965 707 971 z "},"«":{"ha":617,"x_min":65,"x_max":547,"o":"m 547 607 q 453 425 488 497 q 435 399 451 422 q 422 371 422 381 q 435 344 422 363 q 450 322 449 326 q 540 135 486 236 q 489 138 514 138 q 432 135 467 138 q 310 369 371 261 q 435 607 383 499 q 493 606 469 606 q 547 607 518 606 m 307 601 q 207 417 247 500 q 192 397 206 415 q 178 369 178 378 q 190 344 178 361 q 208 319 207 324 q 304 139 256 222 q 254 142 279 142 q 194 139 232 142 q 65 369 131 258 q 196 601 126 465 q 251 600 211 600 q 307 601 290 600 z "},"»":{"ha":617,"x_min":69,"x_max":551,"o":"m 551 372 q 421 140 490 276 q 365 142 406 142 q 310 140 326 142 q 410 325 369 242 q 426 347 411 326 q 439 372 439 364 q 426 397 439 381 q 408 422 410 418 q 313 603 361 519 q 363 600 338 600 q 422 603 385 600 q 551 372 486 483 m 307 372 q 182 135 233 243 q 124 136 147 136 q 69 135 99 136 q 164 317 129 244 q 182 343 165 319 q 194 371 194 361 q 181 397 194 379 q 167 419 168 415 q 76 607 131 506 q 126 604 103 604 q 185 607 150 604 q 307 372 246 481 z "},"…":{"ha":1319,"x_min":174,"x_max":1149,"o":"m 1149 0 q 1090 7 1119 7 q 1026 0 1065 7 q 1029 68 1029 28 q 1026 135 1029 108 q 1083 132 1056 132 q 1149 135 1110 132 q 1146 63 1146 106 q 1149 0 1146 22 m 710 0 q 651 7 681 7 q 589 0 628 7 q 592 68 592 28 q 589 135 592 108 q 644 132 618 132 q 710 135 671 132 q 707 63 707 106 q 710 0 707 22 m 294 0 q 238 7 265 7 q 174 0 213 7 q 176 68 176 28 q 174 135 176 108 q 229 132 203 132 q 294 135 256 132 q 292 63 292 106 q 294 0 292 22 z "},"Œ":{"ha":1288,"x_min":81,"x_max":1185,"o":"m 1185 0 q 933 6 1086 6 q 654 0 776 6 l 654 7 q 657 36 654 18 q 660 64 660 54 q 653 76 660 76 q 642 65 649 76 q 628 49 631 51 q 451 -18 551 -18 q 181 110 276 -18 q 81 490 81 242 q 176 862 81 729 q 451 994 271 994 q 615 936 542 994 q 635 915 621 932 q 654 899 650 899 q 660 908 660 899 q 658 928 660 914 q 656 946 656 942 l 654 983 q 925 978 772 978 q 1172 983 1076 978 q 1169 931 1169 950 q 1172 881 1169 910 q 814 885 1028 885 q 772 880 779 885 q 765 850 765 875 q 764 610 764 768 l 764 572 q 769 548 764 553 q 799 543 775 543 l 831 543 q 1156 549 911 543 q 1151 494 1151 519 q 1156 446 1151 469 q 846 450 1014 450 l 801 450 q 771 444 778 450 q 764 418 764 439 l 764 132 q 806 99 764 99 q 1185 104 1065 99 q 1181 49 1181 74 q 1185 0 1181 24 m 658 463 q 657 715 658 519 q 635 799 657 768 q 449 901 561 901 q 190 486 190 901 q 260 176 190 285 q 447 74 328 74 q 631 160 560 74 q 657 251 657 192 l 658 463 z "},"œ":{"ha":1142,"x_min":75,"x_max":1076,"o":"m 1076 199 q 1006 44 1060 94 q 815 -19 936 -19 q 613 63 679 -19 q 599 89 610 67 q 583 106 590 106 q 568 88 576 106 q 551 60 554 64 q 358 -21 483 -21 q 149 74 224 -21 q 75 347 75 168 q 149 621 75 526 q 358 715 224 715 q 564 621 496 715 q 578 592 567 617 q 592 572 585 572 q 610 592 600 572 q 625 621 624 619 q 819 717 697 717 q 1006 629 939 717 q 1074 369 1074 542 q 1072 329 1074 361 q 776 335 992 335 l 669 335 q 643 331 647 335 q 639 303 639 326 l 639 301 q 688 133 639 193 q 822 72 736 72 q 978 201 953 72 q 1046 196 1019 196 q 1076 199 1061 196 m 961 454 q 960 475 961 465 q 811 625 939 625 q 700 575 746 625 q 640 443 654 525 q 639 428 639 435 q 669 410 639 410 q 761 408 738 408 q 926 414 843 408 q 961 454 961 417 m 533 347 q 358 622 533 622 q 183 347 183 622 q 358 72 183 72 q 533 347 533 72 z "},"–":{"ha":803,"x_min":44,"x_max":758,"o":"m 758 322 q 421 325 642 325 q 44 322 196 325 q 47 368 47 349 q 44 419 47 385 q 426 417 199 417 q 758 419 646 417 q 756 368 756 397 q 758 322 756 340 z "},"—":{"ha":1292,"x_min":44,"x_max":1247,"o":"m 1247 324 q 601 328 957 328 q 44 324 257 328 q 47 369 47 342 q 44 417 47 397 l 1247 417 q 1244 369 1244 396 q 1247 324 1244 343 z "},"“":{"ha":547,"x_min":79,"x_max":463,"o":"m 463 639 q 411 642 424 642 q 385 640 397 642 q 317 985 335 811 q 372 982 344 982 q 431 985 399 982 q 463 639 431 842 m 250 639 q 199 642 211 642 q 172 640 185 642 q 79 985 97 819 q 135 982 107 982 q 193 985 161 982 q 250 639 193 847 z "},"”":{"ha":547,"x_min":85,"x_max":468,"o":"m 468 985 q 375 640 450 819 q 349 642 363 642 q 297 639 336 642 q 354 985 354 847 q 413 982 386 982 q 468 985 440 982 m 231 985 q 163 640 213 811 q 136 642 150 642 q 85 639 124 642 q 117 985 117 842 q 175 982 149 982 q 231 985 203 982 z "},"‘":{"ha":310,"x_min":79,"x_max":225,"o":"m 225 639 q 174 642 186 642 q 147 640 160 642 q 79 985 97 811 q 135 982 107 982 q 193 985 161 982 q 225 639 193 842 z "},"’":{"ha":310,"x_min":85,"x_max":231,"o":"m 231 985 q 163 640 213 811 q 136 642 150 642 q 85 639 124 642 q 117 985 117 842 q 175 982 149 982 q 231 985 203 982 z "},"⁄":{"ha":117,"x_min":-246,"x_max":354,"o":"m 354 926 q -171 -11 63 421 q -207 -7 -181 -7 q -246 -11 -236 -7 q 278 926 8 429 q 317 924 293 924 q 354 926 340 924 z "},"¤":{"ha":746,"x_min":51,"x_max":694,"o":"m 694 225 l 622 158 l 476 297 q 371 271 431 271 q 268 296 313 271 l 124 160 l 51 226 l 200 368 q 178 461 178 411 q 200 557 178 515 l 51 699 l 124 765 l 271 626 q 371 650 314 650 q 474 625 428 650 l 621 760 l 694 693 l 543 554 q 567 461 567 510 q 543 368 567 413 l 694 225 m 485 461 q 457 542 485 510 q 371 578 425 578 q 288 543 318 578 q 258 461 258 508 q 286 381 258 413 q 371 343 318 343 q 457 381 425 343 q 485 461 485 413 z "},"‹":{"ha":374,"x_min":65,"x_max":307,"o":"m 307 139 q 257 142 282 142 q 197 139 235 142 q 65 369 156 218 q 196 601 126 465 q 251 600 211 600 q 307 601 290 600 q 207 417 247 500 q 192 397 206 415 q 178 369 178 378 q 190 344 178 361 q 208 319 207 324 q 307 139 242 250 z "},"›":{"ha":374,"x_min":67,"x_max":308,"o":"m 308 371 q 178 139 247 275 q 124 140 163 140 q 67 139 83 140 q 167 324 126 240 q 183 346 168 325 q 196 371 196 363 q 183 396 196 379 q 165 421 167 417 q 69 601 118 518 q 119 599 94 599 q 179 601 142 599 q 308 371 243 482 z "},"":{"ha":717,"x_min":25,"x_max":600,"o":"m 600 850 q 547 854 579 854 q 489 850 514 854 q 493 922 493 888 q 489 985 493 957 q 550 982 513 982 q 600 985 583 982 q 597 918 597 963 q 600 850 597 874 m 600 0 q 543 7 567 7 q 489 0 513 7 q 493 332 493 146 q 489 694 493 514 q 544 688 514 688 q 600 694 567 688 q 596 338 596 517 q 600 0 596 151 m 393 921 q 389 874 393 893 q 324 888 354 888 q 260 849 278 888 q 247 764 249 824 q 246 740 247 757 q 244 715 244 724 q 248 696 244 700 q 267 692 251 692 q 390 694 354 692 q 386 646 386 671 q 390 601 386 621 q 261 604 318 604 q 244 588 244 604 q 247 0 244 324 q 193 7 219 7 q 142 0 165 7 l 144 589 q 126 604 144 604 q 25 601 100 604 q 31 649 31 626 q 25 694 31 671 q 124 692 75 692 q 143 715 143 692 q 142 747 143 728 q 140 769 140 765 q 187 934 140 881 q 314 988 233 988 q 389 975 351 988 q 393 921 393 946 z "},"":{"ha":717,"x_min":25,"x_max":601,"o":"m 601 0 q 550 6 576 6 q 489 0 517 6 q 492 461 492 176 q 489 985 492 751 q 549 979 515 979 q 601 985 575 979 q 599 461 599 746 q 601 0 599 167 m 393 921 q 389 874 393 893 q 324 888 354 888 q 260 849 278 888 q 247 764 249 824 q 246 740 247 757 q 244 715 244 724 q 248 696 244 700 q 267 692 251 692 q 390 694 354 692 q 386 646 386 671 q 390 601 386 621 q 261 604 318 604 q 244 588 244 604 q 247 0 244 324 q 193 7 219 7 q 142 0 165 7 l 144 589 q 126 604 144 604 q 25 601 100 604 q 31 649 31 626 q 25 694 31 671 q 124 692 75 692 q 143 715 143 692 q 142 747 143 728 q 140 769 140 765 q 187 934 140 881 q 314 988 233 988 q 389 975 351 988 q 393 921 393 946 z "},"‡":{"ha":725,"x_min":51,"x_max":674,"o":"m 674 46 q 433 57 522 56 q 414 61 424 57 l 411 57 q 413 49 411 54 q 414 33 414 43 q 425 -261 418 -132 q 361 -254 381 -254 q 301 -261 335 -254 q 314 31 307 -160 q 317 57 314 46 l 314 61 q 289 54 306 54 q 53 50 229 54 q 61 108 61 94 q 51 165 61 118 q 286 157 203 158 q 303 155 296 157 q 311 153 311 153 q 314 157 314 154 q 314 164 314 158 q 313 178 313 171 q 307 282 313 194 q 304 388 304 347 q 307 468 304 418 q 311 549 311 532 q 313 565 311 558 q 314 571 314 571 q 310 575 313 574 q 289 571 307 574 q 51 563 190 571 q 61 619 61 607 q 53 682 61 635 q 292 671 204 672 q 313 667 301 671 l 314 671 q 314 679 314 674 q 313 694 313 685 q 301 989 308 860 q 364 982 346 982 q 424 989 390 982 q 413 697 415 821 q 408 671 413 682 l 413 667 q 438 674 421 674 q 672 678 496 674 q 664 619 664 633 q 674 563 664 610 q 439 571 522 569 q 422 573 429 571 q 414 575 414 575 q 411 571 411 574 q 413 563 411 569 q 414 550 414 557 q 419 451 414 532 q 422 353 422 390 q 419 267 422 319 q 414 179 415 200 q 413 163 414 169 q 413 157 413 157 q 415 153 414 154 q 436 157 418 154 q 672 165 533 157 q 664 108 664 128 q 674 46 664 101 z "},"·":{"ha":235,"x_min":39,"x_max":197,"o":"m 197 396 q 122 400 168 400 q 39 396 76 400 q 42 472 42 418 q 39 558 42 529 q 121 554 75 554 q 197 558 167 554 q 192 474 192 515 q 197 396 192 433 z "},"∙":{"ha":235,"x_min":39,"x_max":197,"o":"m 197 396 q 122 400 168 400 q 39 396 76 400 q 42 472 42 418 q 39 558 42 529 q 121 554 75 554 q 197 558 167 554 q 192 474 192 515 q 197 396 192 433 z "},"‚":{"ha":335,"x_min":89,"x_max":235,"o":"m 235 135 q 167 -210 217 -39 q 140 -208 154 -208 q 89 -211 128 -208 q 121 135 121 -49 q 181 132 153 132 q 235 135 207 132 z "},"„":{"ha":547,"x_min":79,"x_max":463,"o":"m 463 135 q 369 -210 444 -31 q 343 -208 357 -208 q 292 -211 331 -208 q 349 135 349 -3 q 407 132 381 132 q 463 135 435 132 m 225 135 q 157 -210 207 -39 q 131 -208 144 -208 q 79 -211 118 -208 q 111 135 111 -8 q 169 132 143 132 q 225 135 197 132 z "},"‰":{"ha":1529,"x_min":63,"x_max":1472,"o":"m 1472 243 q 1418 57 1472 128 q 1271 -14 1364 -14 q 1125 56 1179 -14 q 1071 239 1071 125 q 1124 429 1071 358 q 1271 500 1178 500 q 1419 431 1365 500 q 1472 243 1472 361 m 1004 243 q 950 57 1004 128 q 803 -14 896 -14 q 657 56 711 -14 q 603 239 603 125 q 656 429 603 358 q 803 500 710 500 q 951 431 897 500 q 1004 243 1004 361 m 874 953 q 301 0 765 778 q 254 7 282 7 q 199 0 229 7 q 769 953 351 239 q 822 947 794 947 q 874 953 850 947 m 464 708 q 410 523 464 593 q 263 453 356 453 q 117 523 171 453 q 63 706 63 593 q 116 896 63 825 q 263 967 169 967 q 410 897 357 967 q 464 708 464 826 m 1379 238 l 1379 242 q 1365 361 1379 322 q 1271 428 1340 428 q 1161 243 1161 428 q 1272 60 1161 60 q 1379 238 1379 60 m 913 238 q 899 358 913 319 q 803 428 875 428 q 693 243 693 428 q 804 60 693 60 q 913 238 913 60 m 372 703 q 347 849 372 804 q 263 894 321 894 q 153 710 153 894 q 264 526 153 526 q 372 703 372 526 z "},"ı":{"ha":344,"x_min":117,"x_max":226,"o":"m 226 0 q 171 7 193 7 q 117 0 140 7 q 121 332 121 146 q 117 694 121 514 q 172 688 142 688 q 226 694 193 688 q 224 338 224 576 q 226 0 224 101 z "},"ˆ":{"ha":344,"x_min":-14,"x_max":358,"o":"m 358 800 q 300 804 328 804 q 260 800 289 804 q 203 875 242 829 q 188 899 196 886 q 172 911 181 911 q 155 898 163 911 q 140 874 147 885 q 83 800 99 824 q 44 804 54 804 q -14 800 17 804 q 121 990 36 865 q 172 986 157 986 q 224 990 188 986 q 301 878 243 957 q 358 800 357 806 z "},"˜":{"ha":344,"x_min":-44,"x_max":389,"o":"m 389 961 l 388 949 q 350 854 382 893 q 260 810 314 810 q 167 842 222 810 q 89 875 111 875 q 24 804 40 875 q -8 808 6 808 q -44 804 -24 808 l -43 817 q 2 918 -36 876 q 86 960 40 960 q 179 927 124 960 q 264 894 235 894 q 326 961 311 894 q 358 956 346 956 q 389 961 372 956 z "},"¯":{"ha":344,"x_min":-19,"x_max":364,"o":"m 364 814 q 185 817 303 817 q -19 814 63 817 q -15 850 -15 831 q -19 889 -15 869 q 188 886 64 886 q 364 889 306 886 q 358 850 358 863 q 364 814 358 835 z "},"ˉ":{"ha":344,"x_min":-19,"x_max":364,"o":"m 364 814 q 185 817 303 817 q -19 814 63 817 q -15 850 -15 831 q -19 889 -15 869 q 188 886 64 886 q 364 889 306 886 q 358 850 358 863 q 364 814 358 835 z "},"˘":{"ha":344,"x_min":-25,"x_max":369,"o":"m 369 958 q 168 775 346 775 q -25 958 -1 775 q 7 954 -8 954 q 43 958 22 954 q 171 856 64 856 q 303 958 281 856 q 338 954 324 954 q 369 958 353 954 z "},"˙":{"ha":344,"x_min":101,"x_max":242,"o":"m 242 769 q 176 772 222 772 q 101 769 125 772 q 106 839 106 803 q 101 918 106 874 q 175 914 136 914 q 242 918 211 914 q 238 840 238 885 q 242 769 238 799 z "},"˚":{"ha":344,"x_min":40,"x_max":304,"o":"m 304 906 q 265 807 304 847 q 171 767 225 767 q 80 805 119 767 q 40 904 40 843 q 79 1002 40 963 q 172 1042 118 1042 q 265 1003 226 1042 q 304 906 304 964 m 250 904 q 227 965 250 940 q 172 990 204 990 q 117 965 140 990 q 94 904 94 940 q 117 844 94 868 q 171 819 139 819 q 227 844 204 819 q 250 904 250 869 z "},"¸":{"ha":344,"x_min":40,"x_max":303,"o":"m 303 -142 q 257 -223 303 -192 q 140 -254 211 -254 q 40 -233 90 -254 q 54 -182 51 -211 q 132 -194 99 -194 q 211 -147 211 -194 q 128 -103 211 -107 q 90 -101 99 -101 q 142 13 122 -50 l 206 13 l 186 -36 q 176 -53 176 -49 q 182 -57 176 -54 q 196 -54 186 -57 q 303 -142 303 -61 z "},"˝":{"ha":344,"x_min":-67,"x_max":410,"o":"m 410 985 q 251 794 349 918 q 211 799 222 799 q 154 794 185 799 q 269 985 194 860 q 314 978 290 978 q 410 985 349 978 m 190 985 q 32 794 129 918 q -8 799 3 799 q -67 794 -36 799 q 49 985 -26 860 q 94 978 69 978 q 190 985 129 978 z "},"˛":{"ha":344,"x_min":49,"x_max":296,"o":"m 296 -194 q 208 -207 254 -207 q 92 -176 136 -207 q 49 -96 49 -146 q 143 10 49 -12 q 200 8 178 8 q 222 10 219 8 l 222 1 q 161 -31 192 -14 q 136 -87 136 -47 q 232 -147 136 -147 q 283 -143 258 -147 q 296 -194 286 -172 z "},"ˇ":{"ha":344,"x_min":-14,"x_max":358,"o":"m 358 990 q 224 800 308 925 q 172 804 188 804 q 121 800 157 804 q 43 913 101 833 q -14 990 -12 985 q 44 986 17 986 q 83 990 54 986 q 142 915 97 968 q 154 893 143 914 q 171 879 163 879 q 189 892 181 879 q 204 917 197 906 q 260 990 240 960 q 300 986 289 986 q 358 990 328 986 z "},"Ł":{"ha":644,"x_min":28,"x_max":601,"o":"m 601 0 q 369 6 503 6 q 117 0 238 6 l 119 353 q 121 371 119 357 q 121 388 121 382 q 117 392 121 392 q 101 381 117 392 l 28 328 l 32 436 l 101 483 q 119 533 119 496 q 117 964 119 649 q 168 960 140 960 q 226 964 196 960 q 224 613 224 843 q 222 592 224 607 q 221 569 221 576 q 225 564 221 564 q 240 574 226 564 q 456 728 288 606 q 453 672 453 696 q 456 622 453 649 l 236 474 q 224 443 224 465 q 226 144 224 415 q 231 110 226 117 q 254 104 236 104 l 297 104 q 601 110 489 104 q 597 53 597 89 q 601 0 597 21 z "},"ł":{"ha":344,"x_min":28,"x_max":319,"o":"m 319 728 q 317 658 317 696 q 318 617 317 631 l 239 543 q 226 461 226 532 l 226 285 q 228 0 226 83 q 171 4 193 4 q 117 0 138 4 q 119 369 119 176 l 119 424 q 114 432 119 432 q 28 350 111 432 q 32 443 32 407 q 32 464 32 464 l 106 532 q 119 569 119 544 q 117 985 119 751 q 172 979 143 979 q 228 985 197 979 l 225 654 q 233 647 225 647 q 319 728 238 647 z "},"Ð":{"ha":872,"x_min":26,"x_max":792,"o":"m 792 474 q 695 123 792 246 q 413 0 599 0 q 307 2 375 0 q 201 4 239 4 q 117 0 150 4 q 121 407 121 203 q 101 429 121 429 q 26 426 57 429 q 32 474 32 447 q 26 519 32 500 q 103 515 75 515 q 121 532 121 515 q 117 964 121 692 q 218 960 181 960 q 306 962 250 960 q 394 964 363 964 q 792 474 792 964 m 679 475 q 621 747 679 653 q 361 869 544 869 q 261 868 351 869 q 233 861 239 868 q 226 829 226 854 q 222 535 222 646 q 243 514 222 514 q 411 519 361 514 q 406 476 406 499 q 411 426 406 453 q 239 431 349 431 q 222 414 222 431 q 225 179 222 321 q 237 110 226 122 q 299 96 247 99 q 354 94 325 94 q 613 190 538 94 q 679 475 679 276 z "},"ð":{"ha":758,"x_min":75,"x_max":646,"o":"m 646 357 q 579 92 646 190 q 358 -21 504 -21 q 153 64 228 -21 q 75 326 75 154 q 154 588 75 500 q 358 668 228 668 q 422 654 388 668 q 474 619 457 640 q 497 603 486 603 q 506 611 506 603 q 494 636 506 611 q 378 818 436 769 q 365 829 364 829 q 353 819 358 829 l 258 743 q 213 825 243 781 l 276 868 q 289 876 289 871 q 269 883 289 878 q 206 893 239 893 q 86 861 158 893 q 92 963 89 876 q 206 985 144 985 q 357 949 279 985 q 374 942 372 942 q 390 950 379 942 l 469 1013 q 517 926 486 969 l 463 896 q 453 893 460 894 q 447 888 447 892 q 460 876 447 888 q 594 656 542 803 q 646 357 646 508 m 533 326 q 497 525 533 475 q 358 575 461 575 q 183 326 183 575 q 358 72 183 72 q 533 326 533 72 z "},"Š":{"ha":774,"x_min":71,"x_max":703,"o":"m 576 1199 q 442 1008 526 1133 q 390 1013 406 1013 q 339 1008 375 1013 q 261 1121 319 1042 q 204 1199 206 1193 q 263 1194 235 1194 q 301 1199 272 1194 q 360 1124 315 1176 q 372 1101 361 1122 q 389 1088 381 1088 q 407 1101 399 1088 q 422 1125 415 1114 q 478 1199 458 1168 q 518 1194 507 1194 q 576 1199 546 1194 m 703 257 q 617 56 703 131 q 388 -19 532 -19 q 163 51 247 -19 q 71 272 71 129 q 74 321 71 297 q 126 317 93 317 q 188 321 161 317 q 185 278 185 299 q 243 130 185 181 q 399 79 301 79 q 589 247 589 79 q 478 396 589 346 q 353 442 447 410 q 224 496 269 469 q 94 719 94 568 q 177 906 94 831 q 390 982 260 982 q 597 918 513 982 q 690 728 690 849 q 688 664 690 688 q 633 668 665 668 q 575 664 601 668 q 576 708 576 701 q 522 836 576 792 q 383 881 468 881 q 243 832 290 881 q 204 725 204 790 q 296 589 204 638 q 411 543 333 569 q 536 497 500 514 q 703 257 703 424 z "},"š":{"ha":631,"x_min":60,"x_max":564,"o":"m 496 990 q 361 800 446 925 q 310 804 325 804 q 258 800 294 804 q 181 913 239 833 q 124 990 125 985 q 182 986 154 986 q 221 990 192 986 q 279 915 235 968 q 292 893 281 914 q 308 879 300 879 q 326 892 318 879 q 342 917 335 906 q 397 990 378 960 q 438 986 426 986 q 496 990 465 986 m 564 201 q 494 42 564 104 q 307 -19 424 -19 q 60 204 60 -19 l 60 217 q 107 213 76 213 q 158 217 140 213 l 158 207 q 201 97 158 129 q 315 71 239 71 q 423 101 382 71 q 464 186 464 132 q 363 292 464 260 q 176 349 269 319 q 78 514 78 397 q 144 658 78 600 q 314 715 211 715 q 496 642 435 715 q 538 499 538 592 q 496 501 519 501 q 442 497 465 501 q 308 622 442 622 q 179 524 179 622 q 279 417 179 449 q 464 363 371 389 q 564 201 564 314 z "},"Ý":{"ha":772,"x_min":21,"x_max":751,"o":"m 594 1193 q 436 1003 533 1126 q 396 1007 407 1007 q 339 1003 369 1007 q 453 1193 379 1068 q 524 1194 481 1194 q 594 1193 568 1194 m 751 964 q 471 458 642 769 q 443 392 449 415 q 438 315 438 368 q 439 0 438 178 q 386 6 410 6 q 332 0 363 6 l 335 311 q 301 458 335 394 q 21 964 196 646 q 86 958 58 958 q 146 964 114 958 q 353 582 224 821 q 376 514 365 558 q 389 490 382 490 q 401 516 394 490 q 431 582 408 542 q 633 964 508 724 q 689 958 663 958 q 751 964 718 958 z "},"ý":{"ha":628,"x_min":21,"x_max":607,"o":"m 475 985 q 317 794 414 918 q 276 799 288 799 q 219 794 250 799 q 333 985 260 860 q 417 986 360 986 q 475 985 461 986 m 607 694 l 382 0 q 308 -185 338 -139 q 154 -275 251 -275 q 64 -265 107 -275 q 69 -215 69 -240 q 64 -165 69 -199 q 144 -179 110 -179 q 231 -140 196 -179 q 265 -44 265 -101 q 247 53 265 -3 q 214 144 231 99 q 21 694 147 328 q 89 690 64 690 q 140 694 125 690 q 297 190 188 538 q 315 111 304 158 q 324 99 318 99 q 332 111 329 99 q 349 189 343 169 q 422 443 382 290 q 492 694 472 628 q 543 689 508 689 q 607 694 565 689 z "},"Þ":{"ha":768,"x_min":117,"x_max":706,"o":"m 706 489 q 613 263 706 342 q 374 189 525 189 q 310 190 353 189 q 247 190 268 190 q 228 187 232 190 q 225 168 225 183 l 225 138 q 228 0 225 132 q 172 6 204 6 q 117 0 150 6 q 121 475 121 213 q 117 964 121 690 q 169 960 139 960 q 228 964 201 960 q 226 801 226 922 q 250 789 226 789 q 319 790 274 789 q 389 792 365 792 q 623 715 540 792 q 706 489 706 638 m 592 488 q 547 626 592 571 q 392 694 493 694 q 258 690 354 694 q 232 685 238 689 q 226 665 226 682 q 225 549 225 625 l 225 324 q 229 296 225 301 q 250 289 233 290 q 338 288 283 288 q 539 340 478 288 q 592 488 592 388 z "},"þ":{"ha":746,"x_min":107,"x_max":671,"o":"m 671 358 q 613 97 671 196 q 404 -21 543 -21 q 243 58 282 -21 l 233 78 q 214 107 219 107 q 210 99 210 107 q 213 56 210 89 q 217 -1 217 22 l 218 -262 q 157 -257 178 -257 q 107 -262 133 -257 l 110 343 q 107 985 110 703 q 163 982 138 982 q 217 985 186 982 q 207 674 214 881 l 206 628 q 203 609 206 621 q 201 594 201 597 q 207 579 201 579 q 221 594 214 579 q 417 715 281 715 q 671 358 671 715 m 563 356 q 390 624 563 624 q 275 567 332 624 q 219 428 226 517 q 217 313 217 389 q 236 168 217 208 q 385 72 283 72 q 524 146 482 72 q 563 356 563 214 z "},"Ž":{"ha":636,"x_min":28,"x_max":608,"o":"m 496 1199 q 361 1008 446 1133 q 310 1013 325 1013 q 258 1008 294 1013 q 181 1121 239 1042 q 124 1199 125 1193 q 182 1194 154 1194 q 221 1199 192 1194 q 279 1124 235 1176 q 294 1101 281 1122 q 308 1088 303 1088 q 326 1101 315 1088 q 342 1125 333 1114 q 397 1199 378 1168 q 438 1194 426 1194 q 496 1199 465 1194 m 608 0 l 240 6 q 28 0 67 6 q 31 50 31 24 q 28 93 31 75 l 414 756 q 461 826 426 778 q 481 860 481 849 q 454 869 481 869 l 385 869 q 201 865 324 869 q 39 860 67 860 q 42 908 42 878 q 39 964 42 939 l 397 958 q 601 964 482 958 q 603 922 603 938 q 601 881 603 908 l 164 126 q 151 108 160 118 q 142 94 142 99 q 150 92 142 92 q 174 94 156 92 q 200 97 193 97 l 608 107 q 603 53 603 78 q 608 0 603 39 z "},"ž":{"ha":569,"x_min":49,"x_max":521,"o":"m 471 990 q 336 800 421 925 q 285 804 300 804 q 233 800 269 804 q 156 913 214 833 q 99 990 100 985 q 157 986 129 986 q 196 990 167 986 q 254 915 210 968 q 267 893 256 914 q 283 879 275 879 q 301 892 293 879 q 317 917 310 906 q 372 990 353 960 q 413 986 401 986 q 471 990 440 986 m 521 0 q 204 4 333 4 q 49 0 83 4 q 51 43 51 18 q 49 88 51 68 q 340 543 158 254 q 365 574 347 553 q 383 597 383 594 q 369 601 383 601 q 353 601 364 601 q 336 600 340 600 l 269 600 q 75 594 243 600 q 79 649 79 617 q 75 694 79 672 q 350 689 224 689 q 508 694 464 689 q 510 654 510 669 q 508 614 510 639 q 213 154 388 428 q 183 117 200 135 q 172 99 172 104 q 181 94 172 94 q 213 94 189 94 q 247 96 236 96 q 521 100 413 97 q 518 44 518 67 q 521 0 518 26 z "},"½":{"ha":842,"x_min":64,"x_max":803,"o":"m 803 -3 q 651 0 746 0 q 483 -3 560 0 l 483 4 q 478 69 483 56 q 622 186 532 110 q 707 278 688 249 q 743 378 743 326 q 640 482 743 482 q 539 375 539 482 l 539 356 q 510 360 528 360 q 481 356 497 360 l 481 365 q 529 490 481 444 q 643 533 574 533 q 760 491 717 533 q 803 378 803 449 q 754 247 803 308 q 561 75 703 182 q 529 51 529 51 q 538 47 529 47 q 551 49 542 47 q 565 50 561 50 q 803 56 664 50 q 800 22 800 44 q 803 -3 800 10 m 715 964 q 167 -11 374 372 q 131 -7 157 -7 q 92 -11 101 -7 q 639 964 400 525 q 678 961 654 961 q 715 964 701 961 m 231 433 q 203 439 217 439 q 169 433 189 439 q 171 546 169 469 q 171 660 171 622 l 171 818 q 172 835 171 824 q 174 851 174 847 q 169 860 174 860 q 158 851 167 860 q 144 840 150 843 q 64 808 104 822 q 67 840 67 818 q 64 865 67 856 q 194 964 160 892 q 213 963 201 963 q 231 964 224 963 l 229 685 q 231 433 229 528 z "},"¼":{"ha":842,"x_min":64,"x_max":785,"o":"m 715 964 q 167 -11 374 372 q 131 -7 157 -7 q 92 -11 101 -7 q 639 964 400 525 q 678 961 654 961 q 715 964 701 961 m 785 117 q 724 118 758 118 q 706 99 706 118 q 707 0 706 38 q 676 4 686 4 q 647 0 663 4 q 649 97 649 58 q 626 119 649 119 q 428 117 514 119 q 431 154 431 138 q 429 176 431 169 q 622 531 497 297 q 668 526 646 526 q 706 531 688 526 q 704 190 704 443 q 721 171 704 171 q 751 171 729 171 q 785 172 776 172 q 782 150 782 160 q 785 117 782 128 m 231 433 q 203 439 217 439 q 169 433 189 439 q 171 546 169 469 q 171 660 171 622 l 171 818 q 172 835 171 824 q 174 851 174 847 q 169 860 174 860 q 158 851 167 860 q 144 840 150 843 q 64 808 104 822 q 67 840 67 818 q 64 865 67 856 q 194 964 160 892 q 213 963 201 963 q 231 964 224 963 l 229 685 q 231 433 229 528 m 650 271 q 650 342 650 296 q 649 407 649 386 l 649 451 q 650 458 649 454 q 650 465 650 464 q 646 469 650 469 q 635 460 639 469 q 614 415 625 435 q 494 189 575 340 q 483 174 483 168 q 489 169 483 169 q 496 171 490 169 q 504 172 501 172 q 524 172 506 172 q 553 171 540 171 l 629 171 q 647 178 643 171 q 649 190 649 181 q 650 229 649 199 q 650 271 650 256 z "},"¹":{"ha":436,"x_min":96,"x_max":263,"o":"m 263 433 q 235 439 249 439 q 201 433 221 439 q 203 546 201 469 q 203 660 203 622 l 203 818 q 204 835 203 824 q 206 851 206 847 q 201 860 206 860 q 190 851 199 860 q 176 840 182 843 q 96 808 136 822 q 99 840 99 818 q 96 865 99 856 q 226 964 192 892 q 244 963 233 963 q 263 964 256 963 l 261 685 q 263 433 261 528 z "},"¾":{"ha":842,"x_min":44,"x_max":785,"o":"m 761 964 q 213 -11 419 372 q 175 -7 203 -7 q 138 -11 147 -7 q 685 964 446 525 q 724 961 700 961 q 761 964 747 961 m 383 581 q 336 472 383 515 q 207 429 289 429 q 88 472 132 429 q 44 588 44 514 q 78 583 61 583 q 106 588 94 583 q 208 479 106 479 q 319 581 319 479 q 211 686 319 686 q 144 683 192 686 q 146 708 146 692 q 144 735 146 726 q 214 732 189 732 q 310 831 310 732 q 210 922 310 922 q 113 826 119 922 q 81 831 97 831 q 53 826 64 831 q 101 933 56 892 q 213 974 146 974 q 328 933 286 974 q 369 831 369 893 q 303 724 369 757 q 287 720 301 724 q 272 711 272 717 q 286 703 272 706 q 306 699 296 700 q 383 581 383 664 m 785 117 q 724 118 758 118 q 706 99 706 118 q 707 0 706 38 q 676 4 686 4 q 647 0 663 4 q 649 97 649 58 q 626 119 649 119 q 428 117 514 119 q 431 154 431 138 q 429 176 431 169 q 622 531 497 297 q 668 526 646 526 q 706 531 688 526 q 704 190 704 443 q 721 171 704 171 q 751 171 729 171 q 785 172 776 172 q 782 150 782 160 q 785 117 782 128 m 650 271 q 650 342 650 296 q 649 407 649 386 l 649 451 q 650 458 649 454 q 650 465 650 464 q 646 469 650 469 q 635 460 639 469 q 614 415 625 435 q 494 189 575 340 q 483 174 483 168 q 489 169 483 169 q 496 171 490 169 q 504 172 501 172 q 526 172 504 172 q 567 171 547 171 l 629 171 q 647 178 643 171 q 649 190 649 181 q 650 229 649 199 q 650 271 650 256 z "},"³":{"ha":436,"x_min":44,"x_max":383,"o":"m 383 581 q 336 472 383 515 q 207 429 289 429 q 88 472 132 429 q 44 588 44 514 q 78 583 61 583 q 106 588 94 583 q 208 479 106 479 q 319 581 319 479 q 211 686 319 686 q 144 683 192 686 q 146 708 146 692 q 144 735 146 726 q 214 732 189 732 q 310 831 310 732 q 210 922 310 922 q 113 826 119 922 q 81 831 97 831 q 53 826 64 831 q 101 933 56 892 q 213 974 146 974 q 328 933 286 974 q 369 831 369 893 q 303 724 369 757 q 287 720 301 724 q 272 711 272 717 q 286 703 272 706 q 306 699 296 700 q 383 581 383 664 z "},"²":{"ha":436,"x_min":49,"x_max":374,"o":"m 374 439 q 222 442 317 442 q 53 439 129 442 l 53 446 q 49 510 53 499 q 192 628 101 551 q 278 719 258 692 q 314 819 314 768 q 211 924 314 924 q 110 815 110 924 l 110 797 q 81 801 99 801 q 50 797 67 801 l 50 807 q 97 931 50 886 q 214 975 144 975 q 331 933 288 975 q 374 819 374 890 q 324 689 374 753 q 131 515 269 621 q 100 492 100 492 q 108 488 100 488 q 122 490 113 488 q 136 492 132 492 l 210 492 q 374 497 221 492 q 371 464 371 486 q 374 439 371 451 z "},"¦":{"ha":326,"x_min":121,"x_max":206,"o":"m 206 610 q 165 613 192 613 q 121 610 139 613 q 122 785 122 696 q 121 964 122 864 q 165 961 149 961 q 206 964 186 961 l 204 781 q 206 610 204 725 m 206 0 q 165 3 192 3 q 121 0 139 3 q 122 175 122 86 q 121 354 122 254 q 165 351 149 351 q 206 354 186 351 l 204 171 q 206 0 204 115 z "},"­":{"ha":792,"x_min":89,"x_max":701,"o":"m 701 306 q 396 310 499 310 q 89 306 226 310 q 93 353 93 331 q 89 399 93 368 q 396 394 231 394 q 701 399 501 394 q 697 350 697 374 q 701 306 697 324 z "},"−":{"ha":792,"x_min":89,"x_max":701,"o":"m 701 306 q 396 310 499 310 q 89 306 226 310 q 93 353 93 331 q 89 399 93 368 q 396 394 231 394 q 701 399 501 394 q 697 350 697 374 q 701 306 697 324 z "},"×":{"ha":792,"x_min":126,"x_max":665,"o":"m 665 572 l 486 386 q 457 349 457 356 q 482 319 457 346 l 663 133 q 597 63 619 104 l 422 258 q 397 282 401 282 q 365 254 390 282 l 188 60 q 126 125 165 97 l 310 315 q 336 349 336 343 q 327 364 336 357 q 310 378 318 371 l 129 563 q 194 633 168 594 l 368 442 q 397 414 393 414 q 428 440 404 414 l 606 636 q 665 572 625 603 z "},"Ä":{"ha":824,"x_min":22,"x_max":801,"o":"m 599 1039 q 540 1043 576 1043 q 479 1039 504 1043 q 482 1099 482 1060 q 479 1165 482 1138 q 542 1161 504 1161 q 599 1165 576 1161 q 597 1125 597 1151 l 597 1079 q 599 1039 597 1049 m 347 1040 q 285 1043 325 1043 q 225 1040 244 1043 q 226 1101 226 1057 q 225 1167 226 1147 q 288 1165 242 1165 q 347 1167 332 1165 q 344 1108 344 1144 q 347 1040 344 1069 m 801 0 q 736 4 760 4 q 676 0 717 4 q 613 204 656 63 q 602 228 607 224 q 575 232 597 232 q 378 235 469 235 q 256 233 326 235 q 217 229 224 233 q 203 203 210 225 q 142 0 181 132 q 85 4 107 4 q 22 0 58 4 q 336 964 156 397 q 407 960 364 960 q 481 964 444 960 q 626 518 506 874 q 801 0 714 260 m 578 335 q 572 347 578 338 q 564 363 565 357 q 431 781 517 510 q 413 853 424 808 q 406 867 408 867 q 397 853 400 867 q 381 782 390 813 q 251 365 339 650 q 244 348 250 360 q 238 333 238 336 q 250 326 238 326 q 331 328 276 326 q 411 329 385 329 q 542 328 478 329 q 553 326 544 328 q 565 326 561 326 q 578 335 578 326 z "},"Å":{"ha":824,"x_min":22,"x_max":801,"o":"m 536 1128 q 498 1033 536 1067 q 407 999 460 999 q 318 1032 356 999 q 281 1125 281 1065 q 321 1222 281 1186 q 408 1254 357 1254 q 498 1221 460 1254 q 536 1128 536 1188 m 801 0 q 736 4 760 4 q 676 0 717 4 q 613 204 656 63 q 602 228 607 224 q 575 232 597 232 q 378 235 469 235 q 256 233 326 235 q 217 229 224 233 q 203 203 210 225 q 142 0 181 132 q 85 4 107 4 q 22 0 58 4 q 336 964 156 397 q 407 960 364 960 q 481 964 444 960 q 626 518 506 874 q 801 0 714 260 m 478 1126 q 457 1179 478 1160 q 408 1199 436 1199 q 358 1180 379 1199 q 338 1126 338 1161 q 407 1056 338 1056 q 457 1074 436 1056 q 478 1126 478 1093 m 578 335 q 572 347 578 338 q 564 363 565 357 q 431 781 517 510 q 413 853 424 808 q 406 867 408 867 q 397 853 400 867 q 381 782 390 813 q 251 365 339 650 q 244 348 250 360 q 238 333 238 336 q 250 326 238 326 q 331 328 276 326 q 411 329 385 329 q 542 328 478 329 q 553 326 544 328 q 565 326 561 326 q 578 335 578 326 z "},"Ç":{"ha":814,"x_min":82,"x_max":750,"o":"m 750 304 q 740 222 750 268 q 492 -6 699 24 q 439 -49 439 -12 q 444 -57 439 -57 q 452 -56 447 -57 q 458 -54 457 -54 q 536 -78 507 -54 q 565 -142 565 -103 q 519 -223 565 -192 q 403 -254 474 -254 q 303 -233 353 -254 q 317 -182 314 -211 q 394 -194 361 -194 q 474 -147 474 -194 q 419 -106 474 -106 q 383 -110 399 -106 q 353 -101 346 -101 q 386 -36 365 -71 q 394 -18 394 -22 q 363 -4 394 -10 q 82 457 82 43 q 442 971 82 971 q 749 647 747 971 q 701 650 732 650 q 639 646 667 650 l 638 674 q 589 811 633 760 q 439 872 538 872 q 254 783 313 872 q 192 467 192 686 q 433 81 192 81 q 639 332 635 81 q 696 324 664 324 q 749 329 722 324 q 750 304 750 311 z "},"É":{"ha":749,"x_min":117,"x_max":647,"o":"m 550 1193 q 392 1003 489 1126 q 351 1007 363 1007 q 294 1003 325 1007 q 408 1193 335 1068 q 478 1199 428 1199 q 550 1193 531 1199 m 647 0 q 396 6 549 6 q 117 0 239 6 q 121 453 121 211 q 117 963 121 686 q 388 957 235 957 q 635 963 539 957 q 632 910 632 929 q 635 854 632 883 q 276 858 490 858 q 235 853 242 858 q 228 824 228 849 q 226 597 226 742 l 226 567 q 233 541 226 546 q 264 536 239 536 l 289 536 q 618 542 374 536 q 614 485 614 513 q 618 433 614 457 q 292 438 476 438 l 264 438 q 233 432 240 438 q 226 406 226 426 l 226 138 q 233 109 226 114 q 268 104 239 104 q 647 110 528 104 q 643 49 643 79 q 647 0 643 24 z "},"Ñ":{"ha":921,"x_min":115,"x_max":804,"o":"m 664 1169 l 663 1157 q 625 1063 657 1101 q 535 1018 589 1018 q 442 1051 497 1018 q 364 1083 386 1083 q 299 1013 315 1083 q 267 1017 281 1017 q 231 1013 251 1017 l 232 1025 q 277 1126 239 1085 q 361 1168 315 1168 q 454 1135 399 1168 q 539 1103 510 1103 q 601 1169 586 1103 q 633 1164 621 1164 q 664 1169 647 1164 m 804 964 q 801 513 801 806 l 801 0 q 721 6 760 6 q 646 0 675 6 q 289 739 438 440 q 254 799 276 757 q 225 854 233 854 q 215 831 215 854 q 219 771 215 811 q 224 711 224 731 l 224 454 q 226 0 224 167 q 175 7 201 7 q 115 0 147 7 q 119 454 119 213 q 115 964 119 713 q 214 958 157 958 q 293 964 261 958 q 632 275 311 926 q 672 181 657 225 q 699 126 692 126 q 704 146 704 126 q 701 214 704 168 q 697 282 697 260 l 697 513 q 694 964 697 763 q 754 957 728 957 q 804 964 781 957 z "},"Ö":{"ha":896,"x_min":81,"x_max":814,"o":"m 633 1039 q 575 1043 611 1043 q 514 1039 539 1043 q 517 1099 517 1060 q 514 1165 517 1138 q 576 1161 539 1161 q 633 1165 611 1161 q 631 1100 631 1138 q 633 1039 631 1060 m 382 1040 q 319 1043 360 1043 q 260 1040 279 1043 q 261 1101 261 1057 q 260 1167 261 1147 q 322 1165 276 1165 q 382 1167 367 1165 q 379 1108 379 1144 q 382 1040 379 1069 m 814 468 q 451 -18 814 -18 q 181 104 275 -18 q 81 481 81 233 q 175 846 81 718 q 451 974 269 974 q 814 468 814 974 m 706 472 q 629 786 706 679 q 449 881 561 881 q 190 476 190 881 q 260 172 190 276 q 447 74 326 74 q 706 472 706 74 z "},"Ü":{"ha":853,"x_min":119,"x_max":738,"o":"m 608 1039 q 550 1043 586 1043 q 489 1039 514 1043 q 492 1099 492 1060 q 489 1165 492 1138 q 551 1161 514 1161 q 608 1165 586 1161 q 606 1100 606 1138 q 608 1039 606 1060 m 357 1040 q 294 1043 335 1043 q 235 1040 254 1043 q 236 1101 236 1057 q 235 1167 236 1147 q 297 1165 251 1165 q 357 1167 342 1165 q 354 1108 354 1144 q 357 1040 354 1069 m 738 331 q 665 65 738 147 q 426 -18 592 -18 q 197 69 275 -18 q 119 319 119 157 l 119 331 q 121 495 119 388 q 122 663 122 603 q 119 964 122 829 q 178 957 156 957 q 228 964 203 957 q 226 669 226 883 q 228 329 226 450 q 429 81 231 81 q 583 143 538 81 q 628 333 626 201 l 631 699 q 628 964 631 839 q 689 957 661 957 q 738 964 714 957 q 736 713 736 876 q 738 528 736 650 q 738 336 738 404 l 738 331 z "},"á":{"ha":699,"x_min":76,"x_max":607,"o":"m 513 985 q 354 794 451 918 q 314 799 325 799 q 257 794 288 799 q 371 985 297 860 q 440 990 390 990 q 513 985 493 990 m 607 0 l 589 0 q 500 -6 529 0 q 496 88 496 43 q 490 107 496 107 q 476 85 486 107 q 294 -18 431 -18 q 133 35 189 -18 q 76 182 76 88 q 201 381 76 329 q 436 419 256 403 q 488 465 488 424 l 488 481 q 455 590 488 558 q 347 621 422 621 q 236 597 268 621 q 204 521 204 574 q 206 503 204 514 q 207 492 207 493 q 154 496 183 496 q 104 492 131 496 q 103 506 104 494 q 101 519 101 517 q 175 669 101 618 q 350 715 242 715 q 569 604 519 715 q 590 471 590 557 q 590 332 590 425 q 589 210 589 239 q 607 0 589 118 m 490 344 l 490 347 q 486 353 490 353 q 471 349 488 353 q 383 336 439 342 q 293 325 351 333 q 176 181 176 299 q 212 102 176 131 q 299 74 247 74 q 478 199 444 74 q 488 275 488 236 q 489 310 488 288 q 490 344 490 332 z "},"à":{"ha":699,"x_min":76,"x_max":607,"o":"m 444 803 q 404 804 433 804 l 403 804 q 364 803 376 804 q 200 1001 306 874 q 271 1004 235 1004 q 336 1001 308 1004 q 444 803 375 931 m 607 0 l 589 0 q 500 -6 529 0 q 496 88 496 43 q 490 107 496 107 q 476 85 486 107 q 294 -18 431 -18 q 133 35 189 -18 q 76 182 76 88 q 201 381 76 329 q 436 419 256 403 q 488 465 488 424 l 488 481 q 455 590 488 558 q 347 621 422 621 q 236 597 268 621 q 204 521 204 574 q 206 503 204 514 q 207 492 207 493 q 154 496 183 496 q 104 492 131 496 q 103 506 104 494 q 101 519 101 517 q 175 669 101 618 q 350 715 242 715 q 569 604 519 715 q 590 471 590 557 q 590 332 590 425 q 589 210 589 239 q 607 0 589 118 m 490 344 l 490 347 q 486 353 490 353 q 471 349 488 353 q 383 336 439 342 q 293 325 351 333 q 176 181 176 299 q 212 102 176 131 q 299 74 247 74 q 478 199 444 74 q 488 275 488 236 q 489 310 488 288 q 490 344 490 332 z "},"â":{"ha":699,"x_min":76,"x_max":607,"o":"m 521 800 q 463 804 490 804 q 422 800 451 804 q 365 875 404 829 q 351 899 358 886 q 335 911 343 911 q 317 898 325 911 q 303 874 310 885 q 246 800 261 824 q 207 804 217 804 q 149 800 179 804 q 283 990 199 865 q 335 986 319 986 q 386 990 350 986 q 464 878 406 957 q 521 800 519 806 m 607 0 l 589 0 q 500 -6 529 0 q 496 88 496 43 q 490 107 496 107 q 476 85 486 107 q 294 -18 431 -18 q 133 35 189 -18 q 76 182 76 88 q 201 381 76 329 q 436 419 256 403 q 488 465 488 424 l 488 481 q 455 590 488 558 q 347 621 422 621 q 236 597 268 621 q 204 521 204 574 q 206 503 204 514 q 207 492 207 493 q 154 496 183 496 q 104 492 131 496 q 103 506 104 494 q 101 519 101 517 q 175 669 101 618 q 350 715 242 715 q 569 604 519 715 q 590 471 590 557 q 590 332 590 425 q 589 210 589 239 q 607 0 589 118 m 490 344 l 490 347 q 486 353 490 353 q 471 349 488 353 q 383 336 439 342 q 293 325 351 333 q 176 181 176 299 q 212 102 176 131 q 299 74 247 74 q 478 199 444 74 q 488 275 488 236 q 489 310 488 288 q 490 344 490 332 z "},"ä":{"ha":699,"x_min":76,"x_max":607,"o":"m 533 831 q 475 835 511 835 q 414 831 439 835 q 417 890 417 851 q 414 957 417 929 q 476 953 439 953 q 533 957 511 953 q 532 917 532 943 l 532 871 q 533 831 532 840 m 282 832 q 219 835 260 835 q 160 832 179 835 q 161 893 161 849 q 160 958 161 939 q 222 957 176 957 q 282 958 267 957 q 279 900 279 936 q 282 832 279 861 m 607 0 l 589 0 q 500 -6 529 0 q 496 88 496 43 q 490 107 496 107 q 476 85 486 107 q 294 -18 431 -18 q 133 35 189 -18 q 76 182 76 88 q 201 381 76 329 q 436 419 256 403 q 488 465 488 424 l 488 481 q 455 590 488 558 q 347 621 422 621 q 236 597 268 621 q 204 521 204 574 q 206 503 204 514 q 207 492 207 493 q 154 496 183 496 q 104 492 131 496 q 103 506 104 494 q 101 519 101 517 q 175 669 101 618 q 350 715 242 715 q 569 604 519 715 q 590 471 590 557 q 590 332 590 425 q 589 210 589 239 q 607 0 589 118 m 490 344 l 490 347 q 486 353 490 353 q 471 349 488 353 q 383 336 439 342 q 293 325 351 333 q 176 181 176 299 q 212 102 176 131 q 299 74 247 74 q 478 199 444 74 q 488 275 488 236 q 489 310 488 288 q 490 344 490 332 z "},"ã":{"ha":699,"x_min":76,"x_max":607,"o":"m 551 961 l 550 949 q 513 854 544 893 q 422 810 476 810 q 329 842 385 810 q 251 875 274 875 q 186 804 203 875 q 154 808 168 808 q 118 804 139 808 l 119 817 q 165 918 126 876 q 249 960 203 960 q 342 927 286 960 q 426 894 397 894 q 489 961 474 894 q 521 956 508 956 q 551 961 535 956 m 607 0 l 589 0 q 500 -6 529 0 q 496 88 496 43 q 490 107 496 107 q 476 85 486 107 q 294 -18 431 -18 q 133 35 189 -18 q 76 182 76 88 q 201 381 76 329 q 436 419 256 403 q 488 465 488 424 l 488 481 q 455 590 488 558 q 347 621 422 621 q 236 597 268 621 q 204 521 204 574 q 206 503 204 514 q 207 492 207 493 q 154 496 183 496 q 104 492 131 496 q 103 506 104 494 q 101 519 101 517 q 175 669 101 618 q 350 715 242 715 q 569 604 519 715 q 590 471 590 557 q 590 332 590 425 q 589 210 589 239 q 607 0 589 118 m 490 344 l 490 347 q 486 353 490 353 q 471 349 488 353 q 383 336 439 342 q 293 325 351 333 q 176 181 176 299 q 212 102 176 131 q 299 74 247 74 q 478 199 444 74 q 488 275 488 236 q 489 310 488 288 q 490 344 490 332 z "},"å":{"ha":699,"x_min":76,"x_max":607,"o":"m 483 906 q 442 802 483 839 q 346 765 401 765 q 253 800 290 765 q 211 904 211 838 q 254 1008 211 969 q 347 1043 292 1043 q 440 1008 403 1043 q 483 906 483 971 m 607 0 l 589 0 q 500 -6 529 0 q 496 88 496 43 q 490 107 496 107 q 476 85 486 107 q 294 -18 431 -18 q 133 35 189 -18 q 76 182 76 88 q 201 381 76 329 q 436 419 256 403 q 488 465 488 424 l 488 481 q 455 590 488 558 q 347 621 422 621 q 236 597 268 621 q 204 521 204 574 q 206 503 204 514 q 207 492 207 493 q 154 496 183 496 q 104 492 131 496 q 103 506 104 494 q 101 519 101 517 q 175 669 101 618 q 350 715 242 715 q 569 604 519 715 q 590 471 590 557 q 590 332 590 425 q 589 210 589 239 q 607 0 589 118 m 425 904 q 402 967 425 944 q 347 989 379 989 q 292 967 315 989 q 269 904 269 944 q 292 842 269 864 q 346 821 314 821 q 401 843 378 821 q 425 904 425 865 m 490 344 l 490 347 q 486 353 490 353 q 471 349 488 353 q 383 336 439 342 q 293 325 351 333 q 176 181 176 299 q 212 102 176 131 q 299 74 247 74 q 478 199 444 74 q 488 275 488 236 q 489 310 488 288 q 490 344 490 332 z "},"ç":{"ha":646,"x_min":76,"x_max":592,"o":"m 592 464 q 535 469 557 469 q 482 463 508 469 l 479 485 q 347 622 463 622 q 188 333 188 622 q 343 71 188 71 q 445 119 408 71 q 483 249 482 167 q 547 235 511 235 q 590 242 571 235 q 394 -15 567 13 q 351 -53 351 -22 q 357 -57 351 -57 q 365 -56 360 -57 q 371 -54 369 -54 q 446 -79 414 -54 q 478 -142 478 -104 q 432 -223 478 -192 q 315 -254 386 -254 q 215 -233 265 -254 q 229 -182 226 -211 q 307 -194 274 -194 q 386 -144 386 -194 q 343 -111 386 -111 q 314 -115 328 -111 q 265 -101 300 -110 q 290 -51 274 -82 q 303 -24 303 -26 q 286 -14 303 -17 q 76 335 76 25 q 149 617 76 518 q 360 715 222 715 q 589 490 565 715 l 592 464 z "},"é":{"ha":685,"x_min":75,"x_max":619,"o":"m 513 985 q 354 794 451 918 q 314 799 325 799 q 257 794 288 799 q 371 985 297 860 q 440 990 390 990 q 513 985 493 990 m 619 199 q 358 -19 585 -19 q 75 328 75 -19 q 152 613 75 508 q 363 717 229 717 q 549 629 482 717 q 615 369 615 542 q 614 329 615 361 q 390 335 532 335 l 207 335 q 186 330 190 335 q 182 311 182 325 l 182 301 q 230 133 182 193 q 364 72 278 72 q 521 201 496 72 q 589 196 563 196 q 619 199 604 196 m 503 454 q 501 475 503 465 q 353 625 481 625 q 242 575 288 625 q 183 443 197 525 q 182 428 182 435 q 213 410 182 410 q 303 408 281 408 q 469 414 386 408 q 498 422 493 415 q 503 454 503 428 z "},"è":{"ha":685,"x_min":75,"x_max":619,"o":"m 457 803 q 417 804 446 804 l 415 804 q 376 803 389 804 q 213 1001 318 874 q 283 1004 247 1004 q 349 1001 321 1004 q 457 803 388 931 m 619 199 q 358 -19 585 -19 q 75 328 75 -19 q 152 613 75 508 q 363 717 229 717 q 549 629 482 717 q 615 369 615 542 q 614 329 615 361 q 390 335 532 335 l 207 335 q 186 330 190 335 q 182 311 182 325 l 182 301 q 230 133 182 193 q 364 72 278 72 q 521 201 496 72 q 589 196 563 196 q 619 199 604 196 m 503 454 q 501 475 503 465 q 353 625 481 625 q 242 575 288 625 q 183 443 197 525 q 182 428 182 435 q 213 410 182 410 q 303 408 281 408 q 469 414 386 408 q 498 422 493 415 q 503 454 503 428 z "},"ê":{"ha":685,"x_min":75,"x_max":619,"o":"m 533 800 q 475 804 503 804 q 435 800 464 804 q 378 875 417 829 q 363 899 371 886 q 347 911 356 911 q 330 898 338 911 q 315 874 322 885 q 258 800 274 824 q 219 804 229 804 q 161 800 192 804 q 296 990 211 865 q 347 986 332 986 q 399 990 363 986 q 476 878 418 957 q 533 800 532 806 m 619 199 q 358 -19 585 -19 q 75 328 75 -19 q 152 613 75 508 q 363 717 229 717 q 549 629 482 717 q 615 369 615 542 q 614 329 615 361 q 390 335 532 335 l 207 335 q 186 330 190 335 q 182 311 182 325 l 182 301 q 230 133 182 193 q 364 72 278 72 q 521 201 496 72 q 589 196 563 196 q 619 199 604 196 m 503 454 q 501 475 503 465 q 353 625 481 625 q 242 575 288 625 q 183 443 197 525 q 182 428 182 435 q 213 410 182 410 q 303 408 281 408 q 469 414 386 408 q 498 422 493 415 q 503 454 503 428 z "},"ë":{"ha":685,"x_min":75,"x_max":619,"o":"m 546 831 q 488 835 524 835 q 426 831 451 835 q 429 890 429 851 q 426 957 429 929 q 489 953 451 953 q 546 957 524 953 q 543 892 543 929 q 546 831 543 851 m 294 832 q 232 835 272 835 q 172 832 192 835 q 174 893 174 849 q 172 958 174 939 q 235 957 189 957 q 294 958 279 957 q 292 900 292 936 q 294 832 292 861 m 619 199 q 358 -19 585 -19 q 75 328 75 -19 q 152 613 75 508 q 363 717 229 717 q 549 629 482 717 q 615 369 615 542 q 614 329 615 361 q 390 335 532 335 l 207 335 q 186 330 190 335 q 182 311 182 325 l 182 301 q 230 133 182 193 q 364 72 278 72 q 521 201 496 72 q 589 196 563 196 q 619 199 604 196 m 503 454 q 501 475 503 465 q 353 625 481 625 q 242 575 288 625 q 183 443 197 525 q 182 428 182 435 q 213 410 182 410 q 303 408 281 408 q 469 414 386 408 q 498 422 493 415 q 503 454 503 428 z "},"í":{"ha":344,"x_min":82,"x_max":338,"o":"m 338 985 q 179 794 276 918 q 139 799 150 799 q 82 794 113 799 q 196 985 122 860 q 265 990 215 990 q 338 985 318 990 m 226 0 q 171 7 193 7 q 117 0 140 7 q 121 332 121 146 q 117 694 121 514 q 172 688 142 688 q 226 694 193 688 q 224 338 224 576 q 226 0 224 101 z "},"ì":{"ha":344,"x_min":0,"x_max":244,"o":"m 244 803 q 204 804 233 804 l 203 804 q 164 803 176 804 q 0 1001 106 874 q 71 1004 35 1004 q 136 1001 108 1004 q 244 803 175 931 m 226 0 q 171 7 193 7 q 117 0 140 7 q 121 332 121 146 q 117 694 121 514 q 172 688 142 688 q 226 694 193 688 q 224 338 224 576 q 226 0 224 101 z "},"î":{"ha":344,"x_min":-14,"x_max":358,"o":"m 358 800 q 300 804 328 804 q 260 800 289 804 q 203 875 242 829 q 188 899 196 886 q 172 911 181 911 q 155 898 163 911 q 140 874 147 885 q 83 800 99 824 q 44 804 54 804 q -14 800 17 804 q 121 990 36 865 q 172 986 157 986 q 224 990 188 986 q 301 878 243 957 q 358 800 357 806 m 226 0 q 171 7 193 7 q 117 0 140 7 q 121 332 121 146 q 117 694 121 514 q 172 688 142 688 q 226 694 193 688 q 224 338 224 576 q 226 0 224 101 z "},"ï":{"ha":344,"x_min":-15,"x_max":358,"o":"m 358 831 q 300 835 336 835 q 239 831 264 835 q 242 890 242 851 q 239 957 242 929 q 301 953 264 953 q 358 957 336 953 q 356 892 356 929 q 358 831 356 851 m 107 832 q 44 835 85 835 q -15 832 4 835 q -14 893 -14 849 q -15 958 -14 939 q 47 957 1 957 q 107 958 92 957 q 104 900 104 936 q 107 832 104 861 m 226 0 q 171 7 193 7 q 117 0 140 7 q 121 332 121 146 q 117 694 121 514 q 172 688 142 688 q 226 694 193 688 q 224 338 224 576 q 226 0 224 101 z "},"ñ":{"ha":738,"x_min":99,"x_max":629,"o":"m 589 961 l 588 949 q 550 854 582 893 q 460 810 514 810 q 367 842 422 810 q 289 875 311 875 q 224 804 240 875 q 192 808 206 808 q 156 804 176 808 l 157 817 q 202 918 164 876 q 286 960 240 960 q 379 927 324 960 q 464 894 435 894 q 526 961 511 894 q 558 956 546 956 q 589 961 572 956 m 629 0 q 578 6 607 6 q 521 0 549 6 q 524 239 524 96 q 522 454 524 332 q 501 571 521 533 q 400 625 474 625 q 288 581 333 625 q 217 381 217 513 q 217 329 217 367 q 218 267 218 288 l 219 0 q 161 6 182 6 q 111 0 139 6 q 113 224 113 88 l 113 368 q 108 581 113 503 q 99 694 104 658 q 151 689 125 689 q 207 694 178 689 q 210 656 210 678 q 208 610 210 640 q 206 564 206 581 q 208 553 206 553 q 219 569 213 553 q 230 593 225 582 q 247 624 235 604 q 424 711 311 711 q 576 649 525 711 q 628 481 628 588 l 628 310 q 629 0 628 85 z "},"ó":{"ha":711,"x_min":75,"x_max":642,"o":"m 513 985 q 354 794 451 918 q 314 799 325 799 q 257 794 288 799 q 371 985 297 860 q 440 990 390 990 q 513 985 493 990 m 642 347 q 567 74 642 168 q 358 -21 493 -21 q 149 74 224 -21 q 75 347 75 168 q 149 621 75 526 q 358 715 224 715 q 567 621 493 715 q 642 347 642 526 m 533 347 q 358 622 533 622 q 183 347 183 622 q 358 72 183 72 q 533 347 533 72 z "},"ò":{"ha":711,"x_min":75,"x_max":642,"o":"m 444 803 q 404 804 433 804 l 403 804 q 364 803 376 804 q 200 1001 306 874 q 271 1004 235 1004 q 336 1001 308 1004 q 444 803 375 931 m 642 347 q 567 74 642 168 q 358 -21 493 -21 q 149 74 224 -21 q 75 347 75 168 q 149 621 75 526 q 358 715 224 715 q 567 621 493 715 q 642 347 642 526 m 533 347 q 358 622 533 622 q 183 347 183 622 q 358 72 183 72 q 533 347 533 72 z "},"ô":{"ha":711,"x_min":75,"x_max":642,"o":"m 533 800 q 475 804 503 804 q 435 800 464 804 q 378 875 417 829 q 363 899 371 886 q 347 911 356 911 q 330 898 338 911 q 315 874 322 885 q 258 800 274 824 q 219 804 229 804 q 161 800 192 804 q 296 990 211 865 q 347 986 332 986 q 399 990 363 986 q 476 878 418 957 q 533 800 532 806 m 642 347 q 567 74 642 168 q 358 -21 493 -21 q 149 74 224 -21 q 75 347 75 168 q 149 621 75 526 q 358 715 224 715 q 567 621 493 715 q 642 347 642 526 m 533 347 q 358 622 533 622 q 183 347 183 622 q 358 72 183 72 q 533 347 533 72 z "},"ö":{"ha":711,"x_min":75,"x_max":642,"o":"m 546 831 q 488 835 524 835 q 426 831 451 835 q 429 890 429 851 q 426 957 429 929 q 489 953 451 953 q 546 957 524 953 q 543 892 543 929 q 546 831 543 851 m 294 832 q 232 835 272 835 q 172 832 192 835 q 174 893 174 849 q 172 958 174 939 q 235 957 189 957 q 294 958 279 957 q 292 900 292 936 q 294 832 292 861 m 642 347 q 567 74 642 168 q 358 -21 493 -21 q 149 74 224 -21 q 75 347 75 168 q 149 621 75 526 q 358 715 224 715 q 567 621 493 715 q 642 347 642 526 m 533 347 q 358 622 533 622 q 183 347 183 622 q 358 72 183 72 q 533 347 533 72 z "},"õ":{"ha":711,"x_min":75,"x_max":642,"o":"m 564 961 l 563 949 q 525 854 557 893 q 435 810 489 810 q 342 842 397 810 q 264 875 286 875 q 199 804 215 875 q 167 808 181 808 q 131 804 151 808 l 132 817 q 177 918 139 876 q 261 960 215 960 q 354 927 299 960 q 439 894 410 894 q 501 961 486 894 q 533 956 521 956 q 564 961 547 956 m 642 347 q 567 74 642 168 q 358 -21 493 -21 q 149 74 224 -21 q 75 347 75 168 q 149 621 75 526 q 358 715 224 715 q 567 621 493 715 q 642 347 642 526 m 533 347 q 358 622 533 622 q 183 347 183 622 q 358 72 183 72 q 533 347 533 72 z "},"ú":{"ha":740,"x_min":108,"x_max":640,"o":"m 525 985 q 367 794 464 918 q 326 799 338 799 q 269 794 300 799 q 383 985 310 860 q 453 990 403 990 q 525 985 506 990 m 640 3 q 588 8 614 8 q 532 3 561 8 q 528 61 528 28 q 531 97 528 74 q 533 133 533 121 q 529 144 533 144 q 510 105 522 128 q 467 42 497 82 q 315 -14 408 -14 q 161 51 214 -14 q 110 222 110 113 l 110 388 q 108 697 110 611 q 164 692 135 692 q 218 697 193 692 q 215 388 215 601 l 215 243 q 246 110 215 149 q 339 72 276 72 q 481 153 431 72 q 522 317 522 219 q 521 504 522 365 q 519 697 519 664 q 575 692 550 692 q 628 697 600 692 q 626 468 626 610 q 628 232 626 325 q 640 3 631 65 z "},"ù":{"ha":740,"x_min":108,"x_max":640,"o":"m 457 803 q 417 804 446 804 l 415 804 q 376 803 389 804 q 213 1001 318 874 q 283 1004 247 1004 q 349 1001 321 1004 q 457 803 388 931 m 640 3 q 588 8 614 8 q 532 3 561 8 q 528 61 528 28 q 531 97 528 74 q 533 133 533 121 q 529 144 533 144 q 510 105 522 128 q 467 42 497 82 q 315 -14 408 -14 q 161 51 214 -14 q 110 222 110 113 l 110 388 q 108 697 110 611 q 164 692 135 692 q 218 697 193 692 q 215 388 215 601 l 215 243 q 246 110 215 149 q 339 72 276 72 q 481 153 431 72 q 522 317 522 219 q 521 504 522 365 q 519 697 519 664 q 575 692 550 692 q 628 697 600 692 q 626 468 626 610 q 628 232 626 325 q 640 3 631 65 z "},"û":{"ha":740,"x_min":108,"x_max":640,"o":"m 558 800 q 500 804 528 804 q 460 800 489 804 q 403 875 442 829 q 388 899 396 886 q 372 911 381 911 q 355 898 363 911 q 340 874 347 885 q 283 800 299 824 q 244 804 254 804 q 186 800 217 804 q 321 990 236 865 q 372 986 357 986 q 424 990 388 986 q 501 878 443 957 q 558 800 557 806 m 640 3 q 588 8 614 8 q 532 3 561 8 q 528 61 528 28 q 531 97 528 74 q 533 133 533 121 q 529 144 533 144 q 510 105 522 128 q 467 42 497 82 q 315 -14 408 -14 q 161 51 214 -14 q 110 222 110 113 l 110 388 q 108 697 110 611 q 164 692 135 692 q 218 697 193 692 q 215 388 215 601 l 215 243 q 246 110 215 149 q 339 72 276 72 q 481 153 431 72 q 522 317 522 219 q 521 504 522 365 q 519 697 519 664 q 575 692 550 692 q 628 697 600 692 q 626 468 626 610 q 628 232 626 325 q 640 3 631 65 z "},"ü":{"ha":740,"x_min":108,"x_max":640,"o":"m 547 831 q 489 835 525 835 q 428 831 453 835 q 431 890 431 851 q 428 957 431 929 q 490 953 453 953 q 547 957 525 953 q 546 917 546 943 l 546 871 q 547 831 546 840 m 296 832 q 233 835 274 835 q 174 832 193 835 q 175 893 175 849 q 174 958 175 939 q 236 957 190 957 q 296 958 281 957 q 293 900 293 936 q 296 832 293 861 m 640 3 q 588 8 614 8 q 532 3 561 8 q 528 61 528 28 q 531 97 528 74 q 533 133 533 121 q 529 144 533 144 q 510 105 522 128 q 467 42 497 82 q 315 -14 408 -14 q 161 51 214 -14 q 110 222 110 113 l 110 388 q 108 697 110 611 q 164 692 135 692 q 218 697 193 692 q 215 388 215 601 l 215 243 q 246 110 215 149 q 339 72 276 72 q 481 153 431 72 q 522 317 522 219 q 521 504 522 365 q 519 697 519 664 q 575 692 550 692 q 628 697 600 692 q 626 468 626 610 q 628 232 626 325 q 640 3 631 65 z "},"°":{"ha":517,"x_min":57,"x_max":461,"o":"m 461 772 q 401 620 461 682 q 257 558 342 558 q 119 614 178 558 q 57 769 57 675 q 116 921 57 860 q 258 982 175 982 q 401 922 342 982 q 461 772 461 861 m 379 771 q 344 864 379 825 q 258 903 308 903 q 174 864 208 903 q 139 771 139 825 q 174 677 139 715 q 257 639 208 639 q 343 678 307 639 q 379 771 379 717 z "},"®":{"ha":1089,"x_min":47,"x_max":1042,"o":"m 1042 482 q 917 138 1042 279 q 543 -18 778 -18 q 171 139 308 -18 q 47 482 47 279 q 172 826 47 685 q 544 983 310 983 q 917 826 779 983 q 1042 482 1042 685 m 958 482 q 854 774 958 654 q 543 906 739 906 q 233 774 347 906 q 131 482 131 654 q 233 192 131 310 q 543 60 347 60 q 854 192 739 60 q 958 482 958 310 m 758 183 q 711 189 728 189 q 664 185 692 189 q 606 403 629 360 q 528 439 586 439 l 475 439 q 446 434 451 439 q 440 415 440 429 q 443 183 440 247 q 401 189 417 189 q 354 185 382 189 l 356 474 q 354 797 356 604 q 447 794 390 794 q 501 796 465 794 q 556 796 538 796 q 700 740 651 796 q 742 625 742 694 q 713 529 742 569 q 662 500 707 521 q 617 476 617 479 q 642 461 617 468 q 700 394 681 450 q 758 183 714 356 m 654 625 q 535 717 654 717 l 458 717 q 443 700 443 717 q 442 526 442 643 q 456 517 444 517 l 507 517 q 608 532 578 517 q 654 625 654 556 z "},"©":{"ha":1089,"x_min":47,"x_max":1042,"o":"m 1042 482 q 917 138 1042 279 q 543 -18 778 -18 q 171 139 308 -18 q 47 482 47 279 q 172 826 47 685 q 544 983 310 983 q 917 826 779 983 q 1042 482 1042 685 m 958 482 q 854 774 958 654 q 543 906 739 906 q 233 774 347 906 q 131 482 131 654 q 233 192 131 310 q 543 60 347 60 q 854 192 739 60 q 958 482 958 310 m 785 389 q 707 235 778 292 q 553 182 643 182 q 368 256 444 182 q 283 485 283 340 q 367 713 283 629 q 547 786 440 786 q 701 732 636 786 q 781 575 771 674 q 736 582 754 582 q 690 575 714 582 q 642 673 683 638 q 546 708 600 708 q 431 656 478 708 q 376 486 376 594 q 432 315 376 378 q 553 260 482 260 q 648 294 607 260 q 696 390 689 329 q 739 383 717 383 q 785 389 764 383 z "},"™":{"ha":800,"x_min":56,"x_max":746,"o":"m 746 554 q 711 558 724 558 q 679 553 700 558 q 683 824 683 708 l 683 850 q 685 872 683 854 q 686 893 686 889 q 679 900 686 897 q 671 874 678 900 l 579 556 q 549 558 557 558 q 517 556 538 558 q 428 874 476 713 q 426 889 426 881 q 421 897 425 897 q 414 893 414 896 q 415 872 414 890 q 417 850 417 854 l 417 821 q 419 553 417 676 q 389 558 399 558 q 357 554 378 558 q 358 647 357 568 q 360 744 360 706 q 358 853 360 783 q 357 964 357 935 q 413 961 381 961 q 464 964 443 961 q 539 696 501 825 q 544 664 540 693 q 553 649 547 649 q 558 664 556 649 q 564 696 561 686 q 639 964 606 833 q 693 961 686 961 q 746 964 707 961 q 744 771 744 896 q 746 554 744 642 m 313 900 q 224 904 265 904 q 214 893 214 904 l 214 753 q 215 649 214 714 q 217 556 217 576 q 182 558 189 558 q 150 556 175 558 q 151 653 150 589 q 151 750 151 718 l 151 893 q 143 904 151 904 q 56 900 92 904 q 60 932 60 939 q 57 964 60 938 q 192 963 132 963 q 311 964 256 963 q 310 939 310 950 q 313 900 310 924 z "},"≠":{"ha":803,"x_min":0,"x_max":0,"o":""},"∞":{"ha":844,"x_min":0,"x_max":0,"o":""},"±":{"ha":792,"x_min":89,"x_max":703,"o":"m 703 344 l 453 347 q 440 338 440 347 q 440 322 440 332 q 442 307 442 310 l 447 58 q 393 67 414 67 q 344 58 371 67 l 350 303 q 351 318 350 306 q 351 336 351 331 q 340 347 351 347 q 325 347 336 347 q 308 346 313 346 l 89 343 q 93 390 93 364 q 89 442 93 418 l 310 436 q 325 435 313 436 q 342 435 336 435 q 351 446 351 435 q 351 463 351 451 q 350 476 350 474 l 344 724 q 399 719 375 719 q 447 724 425 719 l 442 478 q 440 465 442 476 q 439 449 439 454 q 451 435 439 435 q 468 435 457 435 q 482 436 481 436 l 703 442 q 699 397 699 425 q 703 344 699 371 m 689 -96 q 421 -92 554 -92 q 99 -96 293 -92 q 100 -51 100 -83 q 99 -6 100 -21 q 418 -8 228 -8 q 689 -6 599 -8 q 686 -47 686 -21 q 689 -96 686 -74 z "},"≤":{"ha":632,"x_min":0,"x_max":0,"o":""},"µ":{"ha":740,"x_min":107,"x_max":640,"o":"m 640 3 q 581 10 607 10 q 532 3 554 10 q 528 61 528 28 q 531 97 528 69 q 533 133 533 124 q 531 144 533 140 q 520 130 526 144 q 510 104 514 115 q 430 12 472 38 q 315 -14 388 -14 q 244 3 281 -14 q 213 21 208 21 q 208 18 208 21 q 219 -237 208 22 q 168 -233 200 -233 q 107 -237 135 -233 q 108 47 107 -107 q 110 228 110 200 l 110 394 q 108 697 110 611 q 168 689 143 689 q 218 697 194 689 q 214 388 214 554 q 215 243 214 367 q 228 147 215 188 q 339 72 250 72 q 451 117 406 72 q 522 317 522 185 q 521 522 522 349 l 519 697 q 568 690 542 690 q 628 697 593 690 q 626 468 626 610 q 628 232 626 325 q 640 3 631 65 z "},"μ":{"ha":740,"x_min":107,"x_max":640,"o":"m 640 3 q 581 10 607 10 q 532 3 554 10 q 528 61 528 28 q 531 97 528 69 q 533 133 533 124 q 531 144 533 140 q 520 130 526 144 q 510 104 514 115 q 430 12 472 38 q 315 -14 388 -14 q 244 3 281 -14 q 213 21 208 21 q 208 18 208 21 q 219 -237 208 22 q 168 -233 200 -233 q 107 -237 135 -233 q 108 47 107 -107 q 110 228 110 200 l 110 394 q 108 697 110 611 q 168 689 143 689 q 218 697 194 689 q 214 388 214 554 q 215 243 214 367 q 228 147 215 188 q 339 72 250 72 q 451 117 406 72 q 522 317 522 185 q 521 522 522 349 l 519 697 q 568 690 542 690 q 628 697 593 690 q 626 468 626 610 q 628 232 626 325 q 640 3 631 65 z "},"∂":{"ha":788,"x_min":0,"x_max":0,"o":""},"∑":{"ha":1254,"x_min":0,"x_max":0,"o":""},"∏":{"ha":1254,"x_min":0,"x_max":0,"o":""},"π":{"ha":1254,"x_min":0,"x_max":0,"o":""},"∫":{"ha":1254,"x_min":0,"x_max":0,"o":""},"Ω":{"ha":1254,"x_min":0,"x_max":0,"o":""},"Ω":{"ha":1254,"x_min":0,"x_max":0,"o":""},"¬":{"ha":792,"x_min":85,"x_max":707,"o":"m 707 44 q 663 47 689 47 q 615 44 635 47 q 621 226 621 175 q 617 326 621 301 q 578 351 613 350 q 438 354 529 354 q 253 351 374 354 q 85 349 132 349 q 88 401 88 374 q 85 444 88 429 q 392 440 201 440 q 707 444 585 440 q 701 239 701 354 q 707 44 701 122 z "},"√":{"ha":1254,"x_min":0,"x_max":0,"o":""},"≈":{"ha":1254,"x_min":0,"x_max":0,"o":""},"⋲":{"ha":1254,"x_min":0,"x_max":0,"o":""},"Δ":{"ha":1254,"x_min":0,"x_max":0,"o":""},"∆":{"ha":1254,"x_min":0,"x_max":0,"o":""}," ":{"ha":1254,"x_min":0,"x_max":0,"o":""},"À":{"ha":824,"x_min":22,"x_max":801,"o":"m 519 1011 q 479 1013 508 1013 l 478 1013 q 439 1011 451 1013 q 275 1210 381 1082 q 346 1213 310 1213 q 411 1210 383 1213 q 519 1011 450 1139 m 801 0 q 736 4 760 4 q 676 0 717 4 q 613 204 656 63 q 602 228 607 224 q 575 232 597 232 q 378 235 469 235 q 256 233 326 235 q 217 229 224 233 q 203 203 210 225 q 142 0 181 132 q 85 4 107 4 q 22 0 58 4 q 336 964 156 397 q 407 960 364 960 q 481 964 444 960 q 626 518 506 874 q 801 0 714 260 m 578 335 q 572 347 578 338 q 564 363 565 357 q 431 781 517 510 q 413 853 424 808 q 406 867 408 867 q 397 853 400 867 q 381 782 390 813 q 251 365 339 650 q 244 348 250 360 q 238 333 238 336 q 250 326 238 326 q 331 328 276 326 q 411 329 385 329 q 542 328 478 329 q 553 326 544 328 q 565 326 561 326 q 578 335 578 326 z "},"Ã":{"ha":824,"x_min":22,"x_max":801,"o":"m 626 1169 l 625 1157 q 588 1063 619 1101 q 497 1018 551 1018 q 404 1051 460 1018 q 326 1083 349 1083 q 261 1013 278 1083 q 229 1017 243 1017 q 193 1013 214 1017 l 194 1025 q 240 1126 201 1085 q 324 1168 278 1168 q 417 1135 361 1168 q 501 1103 472 1103 q 564 1169 549 1103 q 596 1164 583 1164 q 626 1169 610 1164 m 801 0 q 736 4 760 4 q 676 0 717 4 q 613 204 656 63 q 602 228 607 224 q 575 232 597 232 q 378 235 469 235 q 256 233 326 235 q 217 229 224 233 q 203 203 210 225 q 142 0 181 132 q 85 4 107 4 q 22 0 58 4 q 336 964 156 397 q 407 960 364 960 q 481 964 444 960 q 626 518 506 874 q 801 0 714 260 m 578 335 q 572 347 578 338 q 564 363 565 357 q 431 781 517 510 q 413 853 424 808 q 406 867 408 867 q 397 853 400 867 q 381 782 390 813 q 251 365 339 650 q 244 348 250 360 q 238 333 238 336 q 250 326 238 326 q 331 328 276 326 q 411 329 385 329 q 542 328 478 329 q 553 326 544 328 q 565 326 561 326 q 578 335 578 326 z "},"Õ":{"ha":896,"x_min":81,"x_max":814,"o":"m 664 1169 l 663 1157 q 625 1063 657 1101 q 535 1018 589 1018 q 442 1051 497 1018 q 364 1083 386 1083 q 299 1013 315 1083 q 267 1017 281 1017 q 231 1013 251 1017 l 232 1025 q 277 1126 239 1085 q 361 1168 315 1168 q 454 1135 399 1168 q 539 1103 510 1103 q 601 1169 586 1103 q 633 1164 621 1164 q 664 1169 647 1164 m 814 468 q 451 -18 814 -18 q 181 104 275 -18 q 81 481 81 233 q 175 846 81 718 q 451 974 269 974 q 814 468 814 974 m 706 472 q 629 786 706 679 q 449 881 561 881 q 190 476 190 881 q 260 172 190 276 q 447 74 326 74 q 706 472 706 74 z "},"÷":{"ha":792,"x_min":61,"x_max":731,"o":"m 475 665 q 452 608 475 632 q 396 585 429 585 q 339 608 363 585 q 315 665 315 632 q 339 723 315 699 q 396 747 363 747 q 452 723 429 747 q 475 665 475 699 m 731 333 q 479 339 608 339 q 61 333 474 339 q 65 392 65 372 q 61 439 65 415 q 426 435 226 435 q 731 439 615 435 q 725 390 725 413 q 731 333 725 371 m 475 103 q 452 46 475 69 q 396 22 429 22 q 339 46 363 22 q 315 103 315 69 q 339 160 315 136 q 396 183 363 183 q 452 160 429 183 q 475 103 475 136 z "},"◊":{"ha":1254,"x_min":0,"x_max":0,"o":""},"ÿ":{"ha":628,"x_min":21,"x_max":607,"o":"m 496 831 q 438 835 474 835 q 376 831 401 835 q 379 890 379 851 q 376 957 379 929 q 439 953 401 953 q 496 957 474 953 q 494 917 494 943 l 494 871 q 496 831 494 840 m 244 832 q 182 835 222 835 q 122 832 142 835 q 124 893 124 849 q 122 958 124 939 q 185 957 139 957 q 244 958 229 957 q 242 900 242 936 q 244 832 242 861 m 607 694 l 382 0 q 308 -185 338 -139 q 154 -275 251 -275 q 64 -265 107 -275 q 69 -215 69 -240 q 64 -165 69 -199 q 144 -179 110 -179 q 231 -140 196 -179 q 265 -44 265 -101 q 247 53 265 -3 q 214 144 231 99 q 21 694 147 328 q 89 690 64 690 q 140 694 125 690 q 297 190 188 538 q 315 111 304 158 q 324 99 318 99 q 332 111 329 99 q 349 189 343 169 q 422 443 382 290 q 492 694 472 628 q 543 689 508 689 q 607 694 565 689 z "},"Ÿ":{"ha":772,"x_min":21,"x_max":751,"o":"m 558 1039 q 500 1043 536 1043 q 439 1039 464 1043 q 442 1099 442 1060 q 439 1165 442 1138 q 501 1161 464 1161 q 558 1165 536 1161 q 557 1125 557 1151 l 557 1079 q 558 1039 557 1049 m 307 1040 q 244 1043 285 1043 q 185 1040 204 1043 q 186 1101 186 1057 q 185 1167 186 1147 q 247 1165 201 1165 q 307 1167 292 1165 q 304 1108 304 1144 q 307 1040 304 1069 m 751 964 q 471 458 642 769 q 443 392 449 415 q 438 315 438 368 q 439 0 438 178 q 390 7 415 7 q 332 0 368 7 l 335 311 q 301 458 335 394 q 21 964 196 646 q 86 958 58 958 q 146 964 114 958 q 353 582 224 821 q 376 514 365 558 q 389 490 382 490 q 401 516 394 490 q 431 582 408 542 q 633 964 508 724 q 689 958 663 958 q 751 964 718 958 z "},"Â":{"ha":824,"x_min":22,"x_max":801,"o":"m 583 1008 q 526 1013 553 1013 q 486 1008 515 1013 q 429 1083 468 1038 q 415 1107 422 1094 q 399 1119 407 1119 q 381 1106 389 1119 q 367 1082 374 1093 q 310 1008 325 1032 q 271 1013 281 1013 q 213 1008 243 1013 q 346 1199 263 1074 q 399 1194 382 1194 q 450 1199 414 1194 q 583 1008 514 1110 m 801 0 q 736 4 760 4 q 676 0 717 4 q 613 204 656 63 q 602 228 607 224 q 575 232 597 232 q 378 235 469 235 q 256 233 326 235 q 217 229 224 233 q 203 203 210 225 q 142 0 181 132 q 85 4 107 4 q 22 0 58 4 q 336 964 156 397 q 407 960 364 960 q 481 964 444 960 q 626 518 506 874 q 801 0 714 260 m 578 335 q 572 347 578 338 q 564 363 565 357 q 431 781 517 510 q 413 853 424 808 q 406 867 408 867 q 397 853 400 867 q 381 782 390 813 q 251 365 339 650 q 244 348 250 360 q 238 333 238 336 q 250 326 238 326 q 331 328 276 326 q 411 329 385 329 q 542 328 478 329 q 553 326 544 328 q 565 326 561 326 q 578 335 578 326 z "},"Ê":{"ha":749,"x_min":117,"x_max":647,"o":"m 571 1008 q 513 1013 540 1013 q 472 1008 501 1013 q 415 1083 454 1038 q 401 1107 408 1094 q 385 1119 393 1119 q 367 1106 375 1119 q 353 1082 360 1093 q 296 1008 311 1032 q 257 1013 267 1013 q 199 1008 229 1013 q 333 1199 249 1074 q 385 1194 369 1194 q 436 1199 400 1194 q 514 1086 456 1165 q 571 1008 569 1014 m 647 0 q 396 6 549 6 q 117 0 239 6 q 121 453 121 211 q 117 963 121 686 q 388 957 235 957 q 635 963 539 957 q 632 910 632 929 q 635 854 632 883 q 276 858 490 858 q 235 853 242 858 q 228 824 228 849 q 226 597 226 742 l 226 567 q 233 541 226 546 q 264 536 239 536 l 289 536 q 618 542 374 536 q 614 485 614 513 q 618 433 614 457 q 306 438 476 438 l 264 438 q 233 432 240 438 q 226 406 226 426 l 226 138 q 233 109 226 114 q 268 104 239 104 q 647 110 528 104 q 643 49 643 79 q 647 0 643 24 z "},"Á":{"ha":824,"x_min":22,"x_max":801,"o":"m 550 1193 q 392 1003 489 1126 q 351 1007 363 1007 q 294 1003 325 1007 q 408 1193 335 1068 q 478 1199 428 1199 q 550 1193 531 1199 m 801 0 q 736 4 760 4 q 676 0 717 4 q 613 204 656 63 q 602 228 607 224 q 575 232 597 232 q 378 235 469 235 q 256 233 326 235 q 217 229 224 233 q 203 203 210 225 q 142 0 181 132 q 85 4 107 4 q 22 0 58 4 q 336 964 156 397 q 407 960 364 960 q 481 964 444 960 q 626 518 506 874 q 801 0 714 260 m 578 335 q 572 347 578 338 q 564 363 565 357 q 431 781 517 510 q 413 853 424 808 q 406 867 408 867 q 397 853 400 867 q 381 782 390 813 q 251 365 339 650 q 244 348 250 360 q 238 333 238 336 q 250 326 238 326 q 331 328 276 326 q 411 329 385 329 q 542 328 478 329 q 553 326 544 328 q 565 326 561 326 q 578 335 578 326 z "},"Ë":{"ha":749,"x_min":117,"x_max":647,"o":"m 558 1039 q 500 1043 536 1043 q 439 1039 464 1043 q 442 1099 442 1060 q 439 1165 442 1138 q 501 1161 464 1161 q 558 1165 536 1161 q 556 1100 556 1138 q 558 1039 556 1060 m 307 1040 q 244 1043 285 1043 q 185 1040 204 1043 q 186 1101 186 1057 q 185 1167 186 1147 q 247 1165 201 1165 q 307 1167 292 1165 q 304 1108 304 1144 q 307 1040 304 1069 m 647 0 q 396 6 549 6 q 117 0 239 6 q 121 453 121 211 q 117 963 121 686 q 388 957 235 957 q 635 963 539 957 q 632 910 632 929 q 635 854 632 883 q 276 858 490 858 q 235 853 242 858 q 228 824 228 849 q 226 597 226 742 l 226 567 q 233 541 226 546 q 264 536 239 536 l 289 536 q 618 542 374 536 q 614 485 614 513 q 618 433 614 457 q 306 438 476 438 l 264 438 q 233 432 240 438 q 226 406 226 426 l 226 138 q 233 109 226 114 q 268 104 239 104 q 647 110 528 104 q 643 49 643 79 q 647 0 643 24 z "},"È":{"ha":749,"x_min":117,"x_max":647,"o":"m 469 1011 q 429 1013 458 1013 l 428 1013 q 389 1011 401 1013 q 225 1210 331 1082 q 296 1213 260 1213 q 361 1210 333 1213 q 469 1011 400 1139 m 647 0 q 396 6 549 6 q 117 0 239 6 q 121 453 121 211 q 117 963 121 686 q 388 957 235 957 q 635 963 539 957 q 632 910 632 929 q 635 854 632 883 q 276 858 490 858 q 235 853 242 858 q 228 824 228 849 q 226 597 226 742 l 226 567 q 233 541 226 546 q 264 536 239 536 l 289 536 q 618 542 374 536 q 614 485 614 513 q 618 433 614 457 q 306 438 476 438 l 264 438 q 233 432 240 438 q 226 406 226 426 l 226 138 q 233 109 226 114 q 268 104 239 104 q 647 110 528 104 q 643 49 643 79 q 647 0 643 24 z "},"Í":{"ha":344,"x_min":69,"x_max":325,"o":"m 325 1207 q 167 1017 264 1140 q 126 1021 138 1021 q 69 1017 100 1021 q 183 1207 110 1082 q 253 1213 203 1213 q 325 1207 306 1213 m 229 0 q 175 7 200 7 q 114 0 149 7 q 118 461 118 193 q 114 964 118 683 q 167 958 138 958 q 229 964 196 958 l 226 461 q 229 0 226 182 z "},"Î":{"ha":344,"x_min":-14,"x_max":358,"o":"m 358 1008 q 300 1013 328 1013 q 260 1008 289 1013 q 203 1083 242 1038 q 188 1107 196 1094 q 172 1119 181 1119 q 155 1106 163 1119 q 140 1082 147 1093 q 83 1008 99 1032 q 44 1013 54 1013 q -14 1008 17 1013 q 121 1199 36 1074 q 172 1194 157 1194 q 224 1199 188 1194 q 301 1086 243 1165 q 358 1008 357 1014 m 229 0 q 175 7 200 7 q 114 0 149 7 q 118 461 118 193 q 114 964 118 683 q 167 958 138 958 q 229 964 196 958 l 226 461 q 229 0 226 182 z "},"Ï":{"ha":344,"x_min":-15,"x_max":358,"o":"m 358 1039 q 300 1043 336 1043 q 239 1039 264 1043 q 242 1099 242 1060 q 239 1165 242 1138 q 301 1161 264 1161 q 358 1165 336 1161 q 357 1125 357 1151 l 357 1079 q 358 1039 357 1049 m 107 1040 q 44 1043 85 1043 q -15 1040 4 1043 q -14 1101 -14 1057 q -15 1167 -14 1147 q 47 1165 1 1165 q 107 1167 92 1165 q 104 1108 104 1144 q 107 1040 104 1069 m 229 0 q 175 7 200 7 q 114 0 149 7 q 118 461 118 193 q 114 964 118 683 q 167 958 138 958 q 229 964 196 958 l 226 461 q 229 0 226 182 z "},"Ì":{"ha":344,"x_min":13,"x_max":257,"o":"m 257 1025 q 217 1026 246 1026 l 215 1026 q 176 1025 189 1026 q 13 1224 118 1096 q 83 1226 47 1226 q 149 1224 121 1226 q 257 1025 188 1153 m 229 0 q 175 7 200 7 q 114 0 149 7 q 118 461 118 193 q 114 964 118 683 q 167 958 138 958 q 229 964 196 958 l 226 461 q 229 0 226 182 z "},"Ó":{"ha":896,"x_min":81,"x_max":814,"o":"m 650 1193 q 492 1003 589 1126 q 451 1007 463 1007 q 394 1003 425 1007 q 508 1193 435 1068 q 578 1199 528 1199 q 650 1193 631 1199 m 814 468 q 451 -18 814 -18 q 181 104 275 -18 q 81 481 81 233 q 175 846 81 718 q 451 974 269 974 q 814 468 814 974 m 706 472 q 629 786 706 679 q 449 881 561 881 q 190 476 190 881 q 260 172 190 276 q 447 74 326 74 q 706 472 706 74 z "},"Ô":{"ha":896,"x_min":81,"x_max":814,"o":"m 621 1008 q 563 1013 590 1013 q 522 1008 551 1013 q 465 1083 504 1038 q 451 1107 458 1094 q 435 1119 443 1119 q 417 1106 425 1119 q 403 1082 410 1093 q 346 1008 361 1032 q 307 1013 317 1013 q 249 1008 279 1013 q 383 1199 299 1074 q 435 1194 419 1194 q 486 1199 450 1194 q 564 1086 506 1165 q 621 1008 619 1014 m 814 468 q 451 -18 814 -18 q 181 104 275 -18 q 81 481 81 233 q 175 846 81 718 q 451 974 269 974 q 814 468 814 974 m 706 472 q 629 786 706 679 q 449 881 561 881 q 190 476 190 881 q 260 172 190 276 q 447 74 326 74 q 706 472 706 74 z "},"Ò":{"ha":896,"x_min":81,"x_max":814,"o":"m 494 1011 q 454 1013 483 1013 l 453 1013 q 414 1011 426 1013 q 250 1210 356 1082 q 321 1213 285 1213 q 386 1210 358 1213 q 494 1011 425 1139 m 814 468 q 451 -18 814 -18 q 181 104 275 -18 q 81 481 81 233 q 175 846 81 718 q 451 974 269 974 q 814 468 814 974 m 706 472 q 629 786 706 679 q 449 881 561 881 q 190 476 190 881 q 260 172 190 276 q 447 74 326 74 q 706 472 706 74 z "},"Ú":{"ha":853,"x_min":119,"x_max":738,"o":"m 575 1193 q 417 1003 514 1126 q 376 1007 388 1007 q 319 1003 350 1007 q 433 1193 360 1068 q 503 1199 453 1199 q 575 1193 556 1199 m 738 331 q 665 65 738 147 q 426 -18 592 -18 q 197 69 275 -18 q 119 319 119 157 l 119 331 q 121 495 119 388 q 122 663 122 603 q 119 964 122 829 q 178 957 156 957 q 228 964 203 957 q 226 669 226 883 q 228 329 226 450 q 429 81 231 81 q 583 143 538 81 q 628 333 626 201 l 631 699 q 628 964 631 839 q 689 957 661 957 q 738 964 714 957 q 736 713 736 876 q 738 528 736 650 q 738 336 738 404 l 738 331 z "},"Û":{"ha":853,"x_min":119,"x_max":738,"o":"m 607 1008 q 549 1013 576 1013 q 508 1008 538 1013 q 451 1083 490 1038 q 437 1107 444 1094 q 421 1119 429 1119 q 403 1106 411 1119 q 389 1082 396 1093 q 333 1008 353 1039 q 293 1013 304 1013 q 235 1008 265 1013 q 369 1199 285 1074 q 421 1194 406 1194 q 472 1199 436 1194 q 550 1086 492 1165 q 607 1008 606 1014 m 738 331 q 665 65 738 147 q 426 -18 592 -18 q 197 69 275 -18 q 119 319 119 157 l 119 331 q 121 495 119 388 q 122 663 122 603 q 119 964 122 829 q 178 957 156 957 q 228 964 203 957 q 226 669 226 883 q 228 329 226 450 q 429 81 231 81 q 583 143 538 81 q 628 333 626 201 l 631 699 q 628 964 631 839 q 689 957 661 957 q 738 964 714 957 q 736 713 736 876 q 738 528 736 650 q 738 336 738 404 l 738 331 z "},"Ù":{"ha":853,"x_min":119,"x_max":738,"o":"m 482 1011 q 442 1013 471 1013 l 440 1013 q 401 1011 414 1013 q 238 1210 343 1082 q 308 1213 272 1213 q 374 1210 346 1213 q 482 1011 413 1139 m 738 331 q 665 65 738 147 q 426 -18 592 -18 q 197 69 275 -18 q 119 319 119 157 l 119 331 q 121 495 119 388 q 122 663 122 603 q 119 964 122 829 q 178 957 156 957 q 228 964 203 957 q 226 669 226 883 q 228 329 226 450 q 429 81 231 81 q 583 143 538 81 q 628 333 626 201 l 631 699 q 628 964 631 839 q 689 957 661 957 q 738 964 714 957 q 736 713 736 876 q 738 528 736 650 q 738 336 738 404 l 738 331 z "},"€":{"ha":785,"x_min":25,"x_max":710,"o":"m 710 254 q 644 71 710 142 q 414 -15 567 -15 q 94 300 149 -15 q 86 325 90 325 q 54 322 75 325 q 25 319 33 319 q 29 361 29 339 q 25 404 29 381 q 51 402 33 404 q 79 400 69 400 q 83 406 83 400 q 82 434 83 415 q 81 463 81 453 q 82 497 81 474 q 83 532 83 521 q 79 536 83 536 q 53 535 69 536 q 25 533 32 533 q 29 574 29 554 q 25 617 29 594 q 85 613 89 613 q 92 623 92 613 q 93 643 93 633 q 426 974 146 974 q 703 833 629 974 q 642 743 675 806 q 414 881 572 881 q 257 813 311 881 q 196 643 214 757 q 192 621 192 615 q 218 613 192 613 l 307 613 q 582 617 365 613 q 535 533 563 590 q 264 536 421 536 l 213 536 q 190 531 194 536 q 186 494 186 525 l 186 429 q 190 406 186 410 q 213 401 194 401 l 267 401 q 461 404 349 401 q 414 319 424 350 q 264 324 288 324 l 222 324 q 196 318 196 324 q 200 299 196 321 q 414 71 243 71 q 567 126 521 71 q 606 275 606 175 q 660 267 629 267 q 708 272 683 267 q 710 263 708 269 q 710 254 710 257 z "}}}
